<svg xmlns="http://www.w3.org/2000/svg" xmlns:xlink="http://www.w3.org/1999/xlink" id="body_121" preserveAspectRatio="xMinYMin meet" viewBox="0 0 695 903"><defs><clipPath id="1"><path d="M0 677L0 -0.4799805L0 -0.4799805L521.575 -0.4799805L521.575 -0.4799805L521.575 677L521.575 677L0 677z" /></clipPath><clipPath id="2"><path d="M0 677L521.575 677L521.575 677L521.575 -0.4799805L521.575 -0.4799805L0 -0.4799805z" /></clipPath><clipPath id="3"><path d="M0 -0.4799805L521.575 -0.4799805L521.575 -0.4799805L521.575 677L521.575 677L0 677z" /></clipPath><clipPath id="4"><path d="M70.3701 262.142L533.387 262.142L533.387 262.142L533.387 574.355L533.387 574.355L70.3701 574.355z" /></clipPath><clipPath id="5"><path d="M0 -0.4799805L521.575 -0.4799805L521.575 -0.4799805L521.575 677L521.575 677L0 677z" /></clipPath><clipPath id="6"><path d="M-9 133.638L48.685 133.638L48.685 133.638L48.685 164.929L48.685 164.929L-9 164.929z" /></clipPath></defs><g transform="matrix(1.333333 0 0 1.333333 0 0)"><g><g clip-path="url(#1)"><g clip-path="url(#2)"><g clip-path="url(#3)"><g><g clip-path="url(#4)"><g transform="matrix(0.2360831 0 0 0.2360831 79.37009 263.1417)"><g transform="matrix(1 0 0 1 0 0)"><image x="0" y="0" xlink:href="img_153.png" width="1885" height="1314" /></g></g></g></g><path transform="matrix(1 0 0 -1 0 677)" d="M79.3701 535.6063L453.5431 535.6063" stroke="#040404" stroke-width="0.283" fill="none" /></g></g><g clip-path="url(#5)"><g><g clip-path="url(#6)"><path transform="matrix(1 0 0 -1 0 677)" d="M0.5 513.571L39.185 513.571L39.185 513.571L39.185 541.862L39.185 541.862L0.5 541.862z" stroke="#FFFFFF" stroke-width="1" fill="#000000" fill-rule="winding" fill-opacity="0" /></g></g></g><path transform="matrix(1 0 0 -1 0 677)" d="M79.3701 130.2993L172.9131 130.2993" stroke="#181818" stroke-width="0.5" fill="none" /></g></g></g></svg>