<svg xmlns="http://www.w3.org/2000/svg" xmlns:xlink="http://www.w3.org/1999/xlink" id="body_172" preserveAspectRatio="xMinYMin meet" viewBox="0 0 695 903"><defs><clipPath id="1"><path d="M0 677L0 -0.4799805L0 -0.4799805L521.575 -0.4799805L521.575 -0.4799805L521.575 677L521.575 677L0 677z" /></clipPath><clipPath id="2"><path d="M0 -0.4799805L521.575 -0.4799805L521.575 -0.4799805L521.575 677L521.575 677L0 677z" /></clipPath><clipPath id="3"><path d="M0 677L521.575 677L521.575 677L521.575 -0.4799805L521.575 -0.4799805L0 -0.4799805z" /></clipPath><clipPath id="4"><path d="M0 -0.4799805L521.575 -0.4799805L521.575 -0.4799805L521.575 677L521.575 677L0 677z" /></clipPath><clipPath id="5"><path d="M495.567 133.638L553.252 133.638L553.252 133.638L553.252 164.929L553.252 164.929L495.567 164.929z" /></clipPath><clipPath id="6"><path d="M0 677L521.575 677L521.575 677L521.575 -0.4799805L521.575 -0.4799805L0 -0.4799805z" /></clipPath><clipPath id="7"><path d="M56.2195 262.142L519.236 262.142L519.236 262.142L519.236 574.355L519.236 574.355L56.2195 574.355z" /></clipPath><clipPath id="8"><path d="M65.219 573.355L510.236 573.355L510.236 573.355L510.236 263.141L510.236 263.141L65.219 263.141z" /></clipPath></defs><g transform="matrix(1.333333 0 0 1.333333 0 0)"><g><g clip-path="url(#1)"><g clip-path="url(#2)"><path transform="matrix(1 0 0 -1 0 677)" d="M68.0542 535.6063L442.2272 535.6063" stroke="#020202" stroke-width="0.283" fill="none" /></g><g clip-path="url(#3)"><g clip-path="url(#4)"><g><g clip-path="url(#5)"><path transform="matrix(1 0 0 -1 0 677)" d="M505.067 513.571L543.752 513.571L543.752 513.571L543.752 541.862L543.752 541.862L505.067 541.862z" stroke="#FFFFFF" stroke-width="1" fill="#000000" fill-rule="winding" fill-opacity="0" /></g></g><g clip-path="url(#6)"><g><g clip-path="url(#7)"><g clip-path="url(#8)"><g transform="matrix(0.2360831 0 0 0.2360831 65.21951 263.1417)"><g transform="matrix(1 0 0 1 0 0)"><image x="0" y="0" xlink:href="img_153.png" width="1885" height="1314" /></g></g></g></g></g></g></g></g></g></g></g></svg>