<svg xmlns="http://www.w3.org/2000/svg" xmlns:xlink="http://www.w3.org/1999/xlink" id="body_118" preserveAspectRatio="xMinYMin meet" viewBox="0 0 695 903"><defs><clipPath id="1"><path d="M0 677L0 -0.4799805L0 -0.4799805L521.575 -0.4799805L521.575 -0.4799805L521.575 677L521.575 677L0 677z" /></clipPath><clipPath id="2"><path d="M0 -0.4799805L521.575 -0.4799805L521.575 -0.4799805L521.575 677L521.575 677L0 677z" /></clipPath><clipPath id="3"><path d="M0 -0.4799805L521.575 -0.4799805L521.575 -0.4799805L521.575 677L521.575 677L0 677z" /></clipPath><clipPath id="4"><path d="M495.567 133.638L553.252 133.638L553.252 133.638L553.252 164.929L553.252 164.929L495.567 164.929z" /></clipPath><clipPath id="5"><path d="M104.639 262.853L405.599 262.853L405.599 262.853L405.599 161.094L405.599 161.094L104.639 161.094z" /></clipPath></defs><g transform="matrix(1.333333 0 0 1.333333 0 0)"><g><g clip-path="url(#1)"><g clip-path="url(#2)"><path transform="matrix(1 0 0 -1 0 677)" d="M68.03149 53.7166L442.2045 53.7166" stroke="#020202" stroke-width="0.283" fill="none" /></g><g clip-path="url(#3)"><g><g clip-path="url(#4)"><path transform="matrix(1 0 0 -1 0 677)" d="M505.067 513.571L543.752 513.571L543.752 513.571L543.752 541.862L543.752 541.862L505.067 541.862z" stroke="#FFFFFF" stroke-width="1" fill="#000000" fill-rule="winding" fill-opacity="0" /></g></g></g><g clip-path="url(#5)"><g transform="matrix(0.48 0 0 0.48 104.6381 161.0934)"><g transform="matrix(1 0 0 1 0 0)"><image x="0" y="0" xlink:href="img_147.png" width="627" height="212" /></g></g></g><path transform="matrix(1 0 0 -1 0 677)" d="M68.031 526.929L442.204 526.929L442.204 526.929L442.204 403.125L442.204 403.125L68.031 403.125z" stroke="#181818" stroke-width="0.3" fill="none" /><g transform="matrix(0.384 0 0 0.384 133.7741 387.742)"><g transform="matrix(1 0 0 1 0 0)"><image x="0" y="0" xlink:href="img_148.png" width="632" height="515" /></g></g><path transform="matrix(1 0 0 -1 0 677)" d="M68.182 296.527L442.055 296.527L442.055 296.527L442.055 84.229L442.055 84.229L68.182 84.229z" stroke="#181818" stroke-width="0.3" fill="none" /></g></g></g></svg>