<svg xmlns="http://www.w3.org/2000/svg" xmlns:xlink="http://www.w3.org/1999/xlink" id="body_161" preserveAspectRatio="xMinYMin meet" viewBox="0 0 695 903"><defs><clipPath id="1"><path d="M0 677L0 -0.4799805L0 -0.4799805L521.575 -0.4799805L521.575 -0.4799805L521.575 677L521.575 677L0 677z" /></clipPath><clipPath id="2"><path d="M0 -0.4799805L521.575 -0.4799805L521.575 -0.4799805L521.575 677L521.575 677L0 677z" /></clipPath><clipPath id="3"><path d="M0 -0.4799805L521.575 -0.4799805L521.575 -0.4799805L521.575 677L521.575 677L0 677z" /></clipPath><clipPath id="4"><path d="M-9 133.638L48.685 133.638L48.685 133.638L48.685 164.929L48.685 164.929L-9 164.929z" /></clipPath><clipPath id="5"><path d="M122.457 585.201L410.457 585.201L410.457 585.201L410.457 538.446L410.457 538.446L122.457 538.446z" /></clipPath></defs><g transform="matrix(1.333333 0 0 1.333333 0 0)"><g><g clip-path="url(#1)"><g clip-path="url(#2)"><path transform="matrix(1 0 0 -1 0 677)" d="M79.1969 53.7166L453.3699 53.7166" stroke="#020202" stroke-width="0.283" fill="none" /></g><g clip-path="url(#3)"><g><g clip-path="url(#4)"><path transform="matrix(1 0 0 -1 0 677)" d="M0.5 513.571L39.185 513.571L39.185 513.571L39.185 541.862L39.185 541.862L0.5 541.862z" stroke="#FFFFFF" stroke-width="1" fill="#000000" fill-rule="winding" fill-opacity="0" /></g></g></g><g transform="matrix(0.48 0 0 0.48 122.4567 66.52728)"><g transform="matrix(1 0 0 1 0 0)"><image x="0" y="0" xlink:href="img_199.png" width="600" height="103" /></g></g><path transform="matrix(1 0 0 -1 0 677)" d="M79.37 617.803L453.543 617.803L453.543 617.803L453.543 553.703L453.543 553.703L79.37 553.703z" stroke="#181818" stroke-width="0.3" fill="none" /><g clip-path="url(#5)"><g transform="matrix(0.48 0 0 0.48 122.4567 537.1032)"><g transform="matrix(1 0 0 1 0 0)"><image x="0" y="0" xlink:href="img_200.png" width="600" height="103" /></g></g></g><path transform="matrix(1 0 0 -1 0 677)" d="M79.37 138.554L453.543 138.554L453.543 138.554L453.543 91.799L453.543 91.799L79.37 91.799z" stroke="#181818" stroke-width="0.3" fill="none" /></g></g></g></svg>