<svg xmlns="http://www.w3.org/2000/svg" xmlns:xlink="http://www.w3.org/1999/xlink" id="body_101" preserveAspectRatio="xMinYMin meet" viewBox="0 0 695 903"><defs><clipPath id="1"><path d="M0 677L0 -0.4799805L0 -0.4799805L521.575 -0.4799805L521.575 -0.4799805L521.575 677L521.575 677L0 677z" /></clipPath><clipPath id="2"><path d="M0 -0.4799805L521.575 -0.4799805L521.575 -0.4799805L521.575 677L521.575 677L0 677z" /></clipPath><clipPath id="3"><path d="M0 -0.4799805L521.575 -0.4799805L521.575 -0.4799805L521.575 677L521.575 677L0 677z" /></clipPath><clipPath id="4"><path d="M495.567 133.638L553.252 133.638L553.252 133.638L553.252 164.929L553.252 164.929L495.567 164.929z" /></clipPath><clipPath id="5"><path d="M273.849 128.767L284.409 128.767L284.409 128.767L284.409 119.048L284.409 119.048L273.849 119.048z" /></clipPath></defs><g transform="matrix(1.333333 0 0 1.333333 0 0)"><g><g clip-path="url(#1)"><g clip-path="url(#2)"><path transform="matrix(1 0 0 -1 0 677)" d="M68.03149 53.7166L442.2045 53.7166" stroke="#020202" stroke-width="0.283" fill="none" /></g><g clip-path="url(#3)"><g><g clip-path="url(#4)"><path transform="matrix(1 0 0 -1 0 677)" d="M505.067 513.571L543.752 513.571L543.752 513.571L543.752 541.862L543.752 541.862L505.067 541.862z" stroke="#FFFFFF" stroke-width="1" fill="#000000" fill-rule="winding" fill-opacity="0" /></g></g></g><g transform="matrix(0.2369999 0 0 0.2399999 352.7015 104.0472)"><g transform="matrix(1 0 0 1 0 0)"><image x="0" y="0" xlink:href="img_123.png" width="40" height="44" /></g></g><g clip-path="url(#5)"><g transform="matrix(0.2399999 0 0 0.2370732 273.8494 119.0472)"><g transform="matrix(1 0 0 1 0 0)"><image x="0" y="0" xlink:href="img_124.png" width="44" height="41" /></g></g></g><g transform="matrix(0.2399999 0 0 0.2399999 350.9094 119.6472)"><g transform="matrix(1 0 0 1 0 0)"><image x="0" y="0" xlink:href="img_125.png" width="38" height="38" /></g></g><path transform="matrix(1 0 0 -1 0 677)" d="M68.03149 82.29919L161.5745 82.29919" stroke="#181818" stroke-width="0.5" fill="none" /></g></g></g></svg>