<svg xmlns="http://www.w3.org/2000/svg" xmlns:xlink="http://www.w3.org/1999/xlink" id="body_125" preserveAspectRatio="xMinYMin meet" viewBox="0 0 695 903"><defs><clipPath id="1"><path d="M0 677L0 -0.4799805L0 -0.4799805L521.575 -0.4799805L521.575 -0.4799805L521.575 677L521.575 677L0 677z" /></clipPath><clipPath id="2"><path d="M0 -0.4799805L521.575 -0.4799805L521.575 -0.4799805L521.575 677L521.575 677L0 677z" /></clipPath><clipPath id="3"><path d="M0 -0.4799805L521.575 -0.4799805L521.575 -0.4799805L521.575 677L521.575 677L0 677z" /></clipPath><clipPath id="4"><path d="M-9 133.638L48.685 133.638L48.685 133.638L48.685 164.929L48.685 164.929L-9 164.929z" /></clipPath><clipPath id="5"><path d="M194.395 314.608L338.517 314.608L338.517 314.608L338.517 162.826L338.517 162.826L194.395 162.826z" /></clipPath><clipPath id="6"><path d="M194.396 182.267L236.876 182.267L236.876 182.267L236.876 224.747L236.876 224.747L194.396 224.747z" /></clipPath><clipPath id="7"><path d="M194.395 224.747L236.875 224.747L236.875 224.747L236.875 182.267L236.875 182.267L194.395 182.267z" /></clipPath><clipPath id="8"><path d="M194.395 314.608L338.517 314.608L338.517 314.608L338.517 162.826L338.517 162.826L194.395 162.826z" /></clipPath><clipPath id="9"><path d="M267.683 182.267L310.164 182.267L310.164 182.267L310.164 224.747L310.164 224.747L267.683 224.747z" /></clipPath><clipPath id="10"><path d="M267.682 224.747L310.162 224.747L310.162 224.747L310.162 182.267L310.162 182.267L267.682 182.267z" /></clipPath><clipPath id="11"><path d="M194.395 314.608L338.517 314.608L338.517 314.608L338.517 162.826L338.517 162.826L194.395 162.826z" /></clipPath><clipPath id="12"><path d="M267.683 255.062L310.164 255.062L310.164 255.062L310.164 297.543L310.164 297.543L267.683 297.543z" /></clipPath><clipPath id="13"><path d="M267.682 297.542L310.162 297.542L310.162 297.542L310.162 255.062L310.162 255.062L267.682 255.062z" /></clipPath><clipPath id="14"><path d="M194.395 314.608L338.517 314.608L338.517 314.608L338.517 162.826L338.517 162.826L194.395 162.826z" /></clipPath><clipPath id="15"><path d="M194.395 314.608L338.517 314.608L338.517 314.608L338.517 162.826L338.517 162.826L194.395 162.826z" /></clipPath><clipPath id="16"><path d="M194.395 314.608L338.517 314.608L338.517 314.608L338.517 162.826L338.517 162.826L194.395 162.826z" /></clipPath><clipPath id="17"><path d="M194.395 314.608L338.517 314.608L338.517 314.608L338.517 162.826L338.517 162.826L194.395 162.826z" /></clipPath><clipPath id="18"><path d="M194.395 314.608L338.517 314.608L338.517 314.608L338.517 162.826L338.517 162.826L194.395 162.826z" /></clipPath><clipPath id="19"><path d="M194.395 314.608L338.517 314.608L338.517 314.608L338.517 162.826L338.517 162.826L194.395 162.826z" /></clipPath><clipPath id="20"><path d="M194.395 314.608L338.517 314.608L338.517 314.608L338.517 162.826L338.517 162.826L194.395 162.826z" /></clipPath><clipPath id="21"><path d="M194.395 314.608L338.517 314.608L338.517 314.608L338.517 162.826L338.517 162.826L194.395 162.826z" /></clipPath></defs><g transform="matrix(1.333333 0 0 1.333333 0 0)"><g><g clip-path="url(#1)"><g clip-path="url(#2)"><path transform="matrix(1 0 0 -1 0 677)" d="M79.1969 53.7166L453.3699 53.7166" stroke="#020202" stroke-width="0.283" fill="none" /></g><g clip-path="url(#3)"><g><g clip-path="url(#4)"><path transform="matrix(1 0 0 -1 0 677)" d="M0.5 513.571L39.185 513.571L39.185 513.571L39.185 541.862L39.185 541.862L0.5 541.862z" stroke="#FFFFFF" stroke-width="1" fill="#000000" fill-rule="winding" fill-opacity="0" /></g></g></g><g clip-path="url(#5)"><g><g clip-path="url(#6)"><g clip-path="url(#7)"><g transform="matrix(0.24 0 0 0.24 194.3957 182.2673)"><g transform="matrix(1 0 0 1 0 0)"><image x="0" y="0" xlink:href="img_158.png" width="177" height="177" /></g></g></g></g></g><path transform="matrix(1 0 0 -1 0 677)" d="M197.7756 474.9554C 197.7756 465.8994 205.1176 458.5574 214.1726 458.5574C 223.2296 458.5574 230.5706 465.8994 230.5706 474.9554C 230.5706 484.0114 223.2296 491.3524 214.1726 491.3524C 205.1176 491.3524 197.7756 484.0114 197.7756 474.9554" stroke="none" fill="#B6B6B6" fill-rule="evenodd" /><path transform="matrix(1 0 0 -1 0 677)" d="M197.7756 474.9554C 197.7756 465.8994 205.1176 458.5574 214.1726 458.5574C 223.2296 458.5574 230.5706 465.8994 230.5706 474.9554C 230.5706 484.0114 223.2296 491.3524 214.1726 491.3524C 205.1176 491.3524 197.7756 484.0114 197.7756 474.9554z" stroke="#181818" stroke-width="1" stroke-linecap="round" fill="none" /></g><g clip-path="url(#8)"><g><g clip-path="url(#9)"><g clip-path="url(#10)"><g transform="matrix(0.24 0 0 0.24 267.6828 182.2673)"><g transform="matrix(1 0 0 1 0 0)"><image x="0" y="0" xlink:href="img_158.png" width="177" height="177" /></g></g></g></g></g><path transform="matrix(1 0 0 -1 0 677)" d="M271.0627 474.9554C 271.0627 465.8994 278.4047 458.5574 287.4597 458.5574C 296.5167 458.5574 303.8577 465.8994 303.8577 474.9554C 303.8577 484.0114 296.5167 491.3524 287.4597 491.3524C 278.4047 491.3524 271.0627 484.0114 271.0627 474.9554" stroke="none" fill="#B6B6B6" fill-rule="evenodd" /><path transform="matrix(1 0 0 -1 0 677)" d="M271.0627 474.9554C 271.0627 465.8994 278.4047 458.5574 287.4597 458.5574C 296.5167 458.5574 303.8577 465.8994 303.8577 474.9554C 303.8577 484.0114 296.5167 491.3524 287.4597 491.3524C 278.4047 491.3524 271.0627 484.0114 271.0627 474.9554z" stroke="#181818" stroke-width="1" stroke-linecap="round" fill="none" /></g><g clip-path="url(#11)"><g><g clip-path="url(#12)"><g clip-path="url(#13)"><g transform="matrix(0.24 0 0 0.24 267.6828 255.0622)"><g transform="matrix(1 0 0 1 0 0)"><image x="0" y="0" xlink:href="img_158.png" width="177" height="177" /></g></g></g></g></g><path transform="matrix(1 0 0 -1 0 677)" d="M271.0627 402.1605C 271.0627 393.1035 278.4047 385.7625 287.4597 385.7625C 296.5167 385.7625 303.8577 393.1035 303.8577 402.1605C 303.8577 411.2165 296.5167 418.5565 287.4597 418.5565C 278.4047 418.5565 271.0627 411.2165 271.0627 402.1605" stroke="none" fill="#B6B6B6" fill-rule="evenodd" /><path transform="matrix(1 0 0 -1 0 677)" d="M271.0627 402.1605C 271.0627 393.1035 278.4047 385.7625 287.4597 385.7625C 296.5167 385.7625 303.8577 393.1035 303.8577 402.1605C 303.8577 411.2165 296.5167 418.5565 287.4597 418.5565C 278.4047 418.5565 271.0627 411.2165 271.0627 402.1605z" stroke="#181818" stroke-width="1" stroke-linecap="round" fill="none" /></g><g clip-path="url(#14)"></g><path transform="matrix(1 0 0 -1 0 677)" d="M230.5705 474.9549L266.7575 474.9549" stroke="#181818" stroke-width="1" stroke-linecap="round" fill="none" /><path transform="matrix(1 0 0 -1 0 677)" d="M265.882 471.9632L271.063 474.9552L271.063 474.9552L265.882 477.9472z" stroke="none" fill="#181818" fill-rule="winding" /><path transform="matrix(1 0 0 -1 0 677)" d="M287.4602 418.5579L287.4602 454.2519" stroke="#181818" stroke-width="1" stroke-linecap="round" fill="none" /><path transform="matrix(1 0 0 -1 0 677)" d="M290.4523 453.3768L287.4603 458.5578L287.4603 458.5578L284.4683 453.3768z" stroke="none" fill="#181818" fill-rule="winding" /><g clip-path="url(#15)"><path transform="matrix(1 0 0 -1 0 677)" d="M202.3098 486.2664C 201.6398 487.8274 201.2688 489.5464 201.2688 491.3524C 201.2688 498.4794 207.0458 504.2564 214.1728 504.2564C 221.2998 504.2564 227.0768 498.4794 227.0768 491.3524C 227.0768 491.0744 227.0688 490.7974 227.0508 490.5234" stroke="#181818" stroke-width="1" stroke-linecap="round" fill="none" /></g><path transform="matrix(1 0 0 -1 0 677)" d="M224.1853 492.0101L226.0633 486.3301L226.0633 486.3301L230.0443 490.7961z" stroke="none" fill="#181818" fill-rule="winding" /><g clip-path="url(#16)"><path transform="matrix(1 0 0 -1 0 677)" d="M275.5969 486.2664C 274.9269 487.8274 274.5559 489.5464 274.5559 491.3524C 274.5559 498.4794 280.3329 504.2564 287.4599 504.2564C 294.5869 504.2564 300.3649 498.4794 300.3649 491.3524C 300.3649 491.0744 300.3569 490.7974 300.3379 490.5234" stroke="#181818" stroke-width="1" stroke-linecap="round" fill="none" /></g><path transform="matrix(1 0 0 -1 0 677)" d="M297.4719 492.0101L299.3509 486.3301L299.3509 486.3301L303.3309 490.7961z" stroke="none" fill="#181818" fill-rule="winding" /><g clip-path="url(#17)"><path transform="matrix(1 0 0 -1 0 677)" d="M299.3234 390.7874C 299.9934 389.2254 300.3644 387.5074 300.3644 385.7014C 300.3644 378.5744 294.5884 372.7974 287.4604 372.7974C 280.3334 372.7974 274.5564 378.5744 274.5564 385.7014C 274.5564 385.9784 274.5644 386.2564 274.5824 386.5304" stroke="#181818" stroke-width="1" stroke-linecap="round" fill="none" /></g><path transform="matrix(1 0 0 -1 0 677)" d="M277.4484 385.0433L275.5704 390.7233L275.5704 390.7233L271.5894 386.2573z" stroke="none" fill="#181818" fill-rule="winding" /><g clip-path="url(#18)"><path transform="matrix(1 0 0 -1 0 677)" d="M303.8576 402.1605L313.2276 402.1605C 318.3816 402.1605 322.5986 406.6645 322.5986 412.1685L322.5986 412.1685L322.5986 464.9475C 322.5986 470.4515 318.3816 474.9555 313.2276 474.9555L313.2276 474.9555L308.1636 474.9555" stroke="#181818" stroke-width="1" stroke-linecap="round" fill="none" /></g><path transform="matrix(1 0 0 -1 0 677)" d="M309.0393 477.9471L303.8573 474.9551L303.8573 474.9551L309.0393 471.9631z" stroke="none" fill="#181818" fill-rule="winding" /><g clip-path="url(#19)"><path transform="matrix(1 0 0 -1 0 677)" d="M271.0627 402.1605L224.1817 402.1605C 218.6767 402.1605 214.1737 406.6645 214.1737 412.1685L214.1737 412.1685L214.1737 454.2525" stroke="#181818" stroke-width="1" stroke-linecap="round" fill="none" /></g><path transform="matrix(1 0 0 -1 0 677)" d="M217.1652 453.3763L214.1732 458.5573L214.1732 458.5573L211.1812 453.3763z" stroke="none" fill="#181818" fill-rule="winding" /><path transform="matrix(1 0 0 -1 0 677)" d="M224.9338 462.5882L271.5328 415.3362" stroke="#181818" stroke-width="1" stroke-linecap="round" fill="none" /><path transform="matrix(1 0 0 -1 0 677)" d="M268.7883 413.8587L274.5563 412.2707L274.5563 412.2707L273.0483 418.0607z" stroke="none" fill="#181818" fill-rule="winding" /><g clip-path="url(#20)"><path transform="matrix(1 0 0 -1 0 677)" d="M274.5559 464.8445L269.2659 459.5545C 266.3559 456.6445 259.8009 455.9535 254.6999 458.0195L254.6999 458.0195L233.1709 466.7315" stroke="#181818" stroke-width="1" stroke-linecap="round" fill="none" /></g><path transform="matrix(1 0 0 -1 0 677)" d="M235.1052 469.1766L229.1802 468.3466L229.1802 468.3466L232.8602 463.6296z" stroke="none" fill="#181818" fill-rule="winding" /><g clip-path="url(#21)"><path transform="matrix(1 0 0 -1 0 677)" d="M225.1457 474.3919C 225.1457 467.4889 219.5487 461.8919 212.6457 461.8919C 205.7427 461.8919 200.1457 467.4889 200.1457 474.3919C 200.1457 481.2949 205.7427 486.8919 212.6457 486.8919C 219.5487 486.8919 225.1457 481.2949 225.1457 474.3919" stroke="none" fill="#B6B6B6" fill-rule="winding" /><path transform="matrix(1 0 0 -1 0 677)" d="M300.3957 475.3919C 300.3957 468.4889 294.7987 462.8919 287.8957 462.8919C 280.9927 462.8919 275.3957 468.4889 275.3957 475.3919C 275.3957 482.2949 280.9927 487.8919 287.8957 487.8919C 294.7987 487.8919 300.3957 482.2949 300.3957 475.3919" stroke="none" fill="#B6B6B6" fill-rule="winding" /><path transform="matrix(1 0 0 -1 0 677)" d="M298.1457 402.1419C 298.1457 395.2389 292.5487 389.6419 285.6457 389.6419C 278.7427 389.6419 273.1457 395.2389 273.1457 402.1419C 273.1457 409.0449 278.7427 414.6419 285.6457 414.6419C 292.5487 414.6419 298.1457 409.0449 298.1457 402.1419" stroke="none" fill="#B6B6B6" fill-rule="winding" /></g><path transform="matrix(1 0 0 -1 0 677)" d="M211.119 506.159L207.857 506.159L207.857 506.159L207.857 512.835L207.857 512.835L211.119 512.835z" stroke="none" fill="#FFFFFF" fill-rule="winding" /><path transform="matrix(1 0 0 -1 0 677)" d="M79.37 518.992L453.543 518.992L453.543 518.992L453.543 357.575L453.543 357.575L79.37 357.575z" stroke="#181818" stroke-width="0.3" fill="none" /></g></g></g></svg>