<svg xmlns="http://www.w3.org/2000/svg" xmlns:xlink="http://www.w3.org/1999/xlink" id="body_56" preserveAspectRatio="xMinYMin meet" viewBox="0 0 695 903"><defs><clipPath id="1"><path d="M0 677L0 -0.4799805L0 -0.4799805L521.575 -0.4799805L521.575 -0.4799805L521.575 677L521.575 677L0 677z" /></clipPath><clipPath id="2"><path d="M0 -0.4799805L521.575 -0.4799805L521.575 -0.4799805L521.575 677L521.575 677L0 677z" /></clipPath><clipPath id="3"><path d="M0 -0.4799805L521.575 -0.4799805L521.575 -0.4799805L521.575 677L521.575 677L0 677z" /></clipPath><clipPath id="4"><path d="M-9 133.638L48.685 133.638L48.685 133.638L48.685 164.929L48.685 164.929L-9 164.929z" /></clipPath><clipPath id="5"><path d="M145.386 454.451L387.527 454.451L387.527 454.451L387.527 259.589L387.527 259.589L145.386 259.589z" /></clipPath><clipPath id="6"><path d="M160.448 264.95L230.528 264.95L230.528 264.95L230.528 300.71L230.528 300.71L160.448 300.71z" /></clipPath><clipPath id="7"><path d="M160.448 300.709L230.527 300.709L230.527 300.709L230.527 264.95L230.527 264.95L160.448 264.95z" /></clipPath><clipPath id="8"><path d="M145.386 454.451L387.527 454.451L387.527 454.451L387.527 259.589L387.527 259.589L145.386 259.589z" /></clipPath><clipPath id="9"><path d="M240.839 259.589L307.32 259.589L307.32 259.589L307.32 305.909L307.32 305.909L240.839 305.909z" /></clipPath><clipPath id="10"><path d="M240.839 305.909L307.318 305.909L307.318 305.909L307.318 259.59L307.318 259.59L240.839 259.59z" /></clipPath><clipPath id="11"><path d="M145.386 454.451L387.527 454.451L387.527 454.451L387.527 259.589L387.527 259.589L145.386 259.589z" /></clipPath><clipPath id="12"><path d="M317.447 264.95L387.528 264.95L387.528 264.95L387.528 300.71L387.528 300.71L317.447 300.71z" /></clipPath><clipPath id="13"><path d="M317.448 300.709L387.526 300.709L387.526 300.709L387.526 264.95L387.526 264.95L317.448 264.95z" /></clipPath><clipPath id="14"><path d="M145.386 454.451L387.527 454.451L387.527 454.451L387.527 259.589L387.527 259.589L145.386 259.589z" /></clipPath><clipPath id="15"><path d="M238.948 316.197L309.028 316.197L309.028 316.197L309.028 351.957L309.028 351.957L238.948 351.957z" /></clipPath><clipPath id="16"><path d="M238.947 351.957L309.027 351.957L309.027 351.957L309.027 316.197L309.027 316.197L238.947 316.197z" /></clipPath><clipPath id="17"><path d="M145.386 454.451L387.527 454.451L387.527 454.451L387.527 259.589L387.527 259.589L145.386 259.589z" /></clipPath><clipPath id="18"><path d="M145.386 454.451L387.527 454.451L387.527 454.451L387.527 259.589L387.527 259.589L145.386 259.589z" /></clipPath><clipPath id="19"><path d="M160.448 367.444L230.528 367.444L230.528 367.444L230.528 403.204L230.528 403.204L160.448 403.204z" /></clipPath><clipPath id="20"><path d="M160.448 403.204L230.527 403.204L230.527 403.204L230.527 367.444L230.527 367.444L160.448 367.444z" /></clipPath><clipPath id="21"><path d="M145.386 454.451L387.527 454.451L387.527 454.451L387.527 259.589L387.527 259.589L145.386 259.589z" /></clipPath><clipPath id="22"><path d="M240.839 362.083L307.32 362.083L307.32 362.083L307.32 408.403L307.32 408.403L240.839 408.403z" /></clipPath><clipPath id="23"><path d="M240.839 408.402L307.318 408.402L307.318 408.402L307.318 362.083L307.318 362.083L240.839 362.083z" /></clipPath><clipPath id="24"><path d="M145.386 454.451L387.527 454.451L387.527 454.451L387.527 259.589L387.527 259.589L145.386 259.589z" /></clipPath><clipPath id="25"><path d="M317.447 367.444L387.528 367.444L387.528 367.444L387.528 403.204L387.528 403.204L317.447 403.204z" /></clipPath><clipPath id="26"><path d="M317.448 403.204L387.526 403.204L387.526 403.204L387.526 367.444L387.526 367.444L317.448 367.444z" /></clipPath><clipPath id="27"><path d="M145.386 454.451L387.527 454.451L387.527 454.451L387.527 259.589L387.527 259.589L145.386 259.589z" /></clipPath><clipPath id="28"><path d="M238.948 418.691L309.028 418.691L309.028 418.691L309.028 454.451L309.028 454.451L238.948 454.451z" /></clipPath><clipPath id="29"><path d="M238.947 454.451L309.027 454.451L309.027 454.451L309.027 418.691L309.027 418.691L238.947 418.691z" /></clipPath><clipPath id="30"><path d="M145.386 454.451L387.527 454.451L387.527 454.451L387.527 259.589L387.527 259.589L145.386 259.589z" /></clipPath><clipPath id="31"><path d="M145.386 454.451L387.527 454.451L387.527 454.451L387.527 259.589L387.527 259.589L145.386 259.589z" /></clipPath></defs><g transform="matrix(1.333333 0 0 1.333333 0 0)"><g><g clip-path="url(#1)"><g clip-path="url(#2)"><path transform="matrix(1 0 0 -1 0 677)" d="M79.1969 53.7166L453.3699 53.7166" stroke="#020202" stroke-width="0.283" fill="none" /></g><g clip-path="url(#3)"><g><g clip-path="url(#4)"><path transform="matrix(1 0 0 -1 0 677)" d="M0.5 513.571L39.185 513.571L39.185 513.571L39.185 541.862L39.185 541.862L0.5 541.862z" stroke="#FFFFFF" stroke-width="1" fill="#000000" fill-rule="winding" fill-opacity="0" /></g></g></g><g clip-path="url(#5)"><g><g clip-path="url(#6)"><g clip-path="url(#7)"><g transform="matrix(0.24 0 0 0.24 160.4482 264.9506)"><g transform="matrix(1 0 0 1 0 0)"><image x="0" y="0" xlink:href="img_67.png" width="292" height="149" /></g></g></g></g></g></g><path transform="matrix(1 0 0 -1 0 677)" d="M224.219 382.784L163.828 382.784L163.828 382.784L163.828 408.67L163.828 408.67L224.219 408.67z" stroke="none" fill="#B6B6B6" fill-rule="evenodd" /><path transform="matrix(1 0 0 -1 0 677)" d="M224.2192 382.7839L163.8282 382.7839L163.8282 382.7839L163.8282 408.6699L163.8282 408.6699L224.2192 408.6699z" stroke="#181818" stroke-width="1" stroke-linecap="round" fill="none" /><g clip-path="url(#8)"><g><g clip-path="url(#9)"><g clip-path="url(#10)"><g transform="matrix(0.24 0 0 0.2399999 240.8393 259.5893)"><g transform="matrix(1 0 0 1 0 0)"><image x="0" y="0" xlink:href="img_68.png" width="277" height="193" /></g></g></g></g></g></g><path transform="matrix(1 0 0 -1 0 677)" d="M272.5239 377.4224L244.2199 395.7264L244.2199 395.7264L272.5239 414.0304L272.5239 414.0304L300.8279 395.7264z" stroke="none" fill="#B6B6B6" fill-rule="evenodd" /><path transform="matrix(1 0 0 -1 0 677)" d="M272.5239 377.4224L244.2199 395.7264L244.2199 395.7264L272.5239 414.0304L272.5239 414.0304L300.8279 395.7264L300.8279 395.7264L272.5239 377.4224z" stroke="#181818" stroke-width="1" stroke-linecap="round" fill="none" /><g clip-path="url(#11)"><g><g clip-path="url(#12)"><g clip-path="url(#13)"><g transform="matrix(0.24 0 0 0.24 317.4477 264.9506)"><g transform="matrix(1 0 0 1 0 0)"><image x="0" y="0" xlink:href="img_67.png" width="292" height="149" /></g></g></g></g></g></g><path transform="matrix(1 0 0 -1 0 677)" d="M381.219 382.784L320.828 382.784L320.828 382.784L320.828 408.67L320.828 408.67L381.219 408.67z" stroke="none" fill="#B6B6B6" fill-rule="evenodd" /><path transform="matrix(1 0 0 -1 0 677)" d="M381.2192 382.7839L320.8282 382.7839L320.8282 382.7839L320.8282 408.6699L320.8282 408.6699L381.2192 408.6699z" stroke="#181818" stroke-width="1" stroke-linecap="round" fill="none" /><g clip-path="url(#14)"><g><g clip-path="url(#15)"><g clip-path="url(#16)"><g transform="matrix(0.24 0 0 0.24 238.9477 316.1972)"><g transform="matrix(1 0 0 1 0 0)"><image x="0" y="0" xlink:href="img_67.png" width="292" height="149" /></g></g></g></g></g></g><path transform="matrix(1 0 0 -1 0 677)" d="M302.719 331.537L242.328 331.537L242.328 331.537L242.328 357.423L242.328 357.423L302.719 357.423z" stroke="none" fill="#B6B6B6" fill-rule="evenodd" /><path transform="matrix(1 0 0 -1 0 677)" d="M302.7192 331.5369L242.3282 331.5369L242.3282 331.5369L242.3282 357.4229L242.3282 357.4229L302.7192 357.4229z" stroke="#181818" stroke-width="1" stroke-linecap="round" fill="none" /><path transform="matrix(1 0 0 -1 0 677)" d="M224.2197 395.7266L240.4057 395.7266" stroke="#181818" stroke-width="1" stroke-linecap="round" fill="none" /><path transform="matrix(1 0 0 -1 0 677)" d="M239.5307 392.7349L244.7117 395.7269L244.7117 395.7269L239.5307 398.7179z" stroke="none" fill="#181818" fill-rule="winding" /><path transform="matrix(1 0 0 -1 0 677)" d="M272.5239 377.9146L272.5239 361.7286" stroke="#181818" stroke-width="1" stroke-linecap="round" fill="none" /><path transform="matrix(1 0 0 -1 0 677)" d="M269.5317 362.6036L272.5237 357.4226L272.5237 357.4226L275.5157 362.6036z" stroke="none" fill="#181818" fill-rule="winding" /><path transform="matrix(1 0 0 -1 0 677)" d="M300.8276 395.7266L317.0136 395.7266" stroke="#181818" stroke-width="1" stroke-linecap="round" fill="none" /><path transform="matrix(1 0 0 -1 0 677)" d="M316.1382 392.7349L321.3202 395.7269L321.3202 395.7269L316.1382 398.7179z" stroke="none" fill="#181818" fill-rule="winding" /><g clip-path="url(#17)"><path transform="matrix(1 0 0 -1 0 677)" d="M242.3276 344.4796L204.0316 344.4796C 198.5276 344.4796 194.0236 348.9836 194.0236 354.4876L194.0236 354.4876L194.0236 378.4776" stroke="#181818" stroke-width="1" stroke-linecap="round" fill="none" /></g><path transform="matrix(1 0 0 -1 0 677)" d="M197.0156 377.6026L194.0236 382.7836L194.0236 382.7836L191.0316 377.6026z" stroke="none" fill="#181818" fill-rule="winding" /><g clip-path="url(#18)"><g><g clip-path="url(#19)"><g clip-path="url(#20)"><g transform="matrix(0.24 0 0 0.24 160.4482 367.4443)"><g transform="matrix(1 0 0 1 0 0)"><image x="0" y="0" xlink:href="img_67.png" width="292" height="149" /></g></g></g></g></g></g><path transform="matrix(1 0 0 -1 0 677)" d="M224.219 280.29L163.828 280.29L163.828 280.29L163.828 306.176L163.828 306.176L224.219 306.176z" stroke="none" fill="#B6B6B6" fill-rule="evenodd" /><path transform="matrix(1 0 0 -1 0 677)" d="M224.2192 280.2899L163.8282 280.2899L163.8282 280.2899L163.8282 306.1759L163.8282 306.1759L224.2192 306.1759z" stroke="#181818" stroke-width="1" stroke-linecap="round" fill="none" /><g clip-path="url(#21)"><g><g clip-path="url(#22)"><g clip-path="url(#23)"><g transform="matrix(0.24 0 0 0.2399999 240.8393 362.0829)"><g transform="matrix(1 0 0 1 0 0)"><image x="0" y="0" xlink:href="img_68.png" width="277" height="193" /></g></g></g></g></g></g><path transform="matrix(1 0 0 -1 0 677)" d="M272.5239 274.9288L244.2199 293.2328L244.2199 293.2328L272.5239 311.5368L272.5239 311.5368L300.8279 293.2328z" stroke="none" fill="#B6B6B6" fill-rule="evenodd" /><path transform="matrix(1 0 0 -1 0 677)" d="M272.5239 274.9288L244.2199 293.2328L244.2199 293.2328L272.5239 311.5368L272.5239 311.5368L300.8279 293.2328L300.8279 293.2328L272.5239 274.9288z" stroke="#181818" stroke-width="1" stroke-linecap="round" fill="none" /><g clip-path="url(#24)"><g><g clip-path="url(#25)"><g clip-path="url(#26)"><g transform="matrix(0.24 0 0 0.24 317.4477 367.4443)"><g transform="matrix(1 0 0 1 0 0)"><image x="0" y="0" xlink:href="img_67.png" width="292" height="149" /></g></g></g></g></g></g><path transform="matrix(1 0 0 -1 0 677)" d="M381.219 280.29L320.828 280.29L320.828 280.29L320.828 306.176L320.828 306.176L381.219 306.176z" stroke="none" fill="#B6B6B6" fill-rule="evenodd" /><path transform="matrix(1 0 0 -1 0 677)" d="M381.2192 280.2899L320.8282 280.2899L320.8282 280.2899L320.8282 306.1759L320.8282 306.1759L381.2192 306.1759z" stroke="#181818" stroke-width="1" stroke-linecap="round" fill="none" /><g clip-path="url(#27)"><g><g clip-path="url(#28)"><g clip-path="url(#29)"><g transform="matrix(0.24 0 0 0.24 238.9477 418.6913)"><g transform="matrix(1 0 0 1 0 0)"><image x="0" y="0" xlink:href="img_67.png" width="292" height="149" /></g></g></g></g></g></g><path transform="matrix(1 0 0 -1 0 677)" d="M302.719 229.043L242.328 229.043L242.328 229.043L242.328 254.929L242.328 254.929L302.719 254.929z" stroke="none" fill="#B6B6B6" fill-rule="evenodd" /><path transform="matrix(1 0 0 -1 0 677)" d="M302.7192 229.0429L242.3282 229.0429L242.3282 229.0429L242.3282 254.9289L242.3282 254.9289L302.7192 254.9289z" stroke="#181818" stroke-width="1" stroke-linecap="round" fill="none" /><path transform="matrix(1 0 0 -1 0 677)" d="M224.2197 293.2325L240.4057 293.2325" stroke="#181818" stroke-width="1" stroke-linecap="round" fill="none" /><path transform="matrix(1 0 0 -1 0 677)" d="M239.5307 290.2413L244.7117 293.2333L244.7117 293.2333L239.5307 296.2243z" stroke="none" fill="#181818" fill-rule="winding" /><path transform="matrix(1 0 0 -1 0 677)" d="M272.5239 275.421L272.5239 259.235" stroke="#181818" stroke-width="1" stroke-linecap="round" fill="none" /><path transform="matrix(1 0 0 -1 0 677)" d="M269.5317 260.1104L272.5237 254.9284L272.5237 254.9284L275.5157 260.1104z" stroke="none" fill="#181818" fill-rule="winding" /><path transform="matrix(1 0 0 -1 0 677)" d="M300.8276 293.2325L317.0136 293.2325" stroke="#181818" stroke-width="1" stroke-linecap="round" fill="none" /><path transform="matrix(1 0 0 -1 0 677)" d="M316.1382 290.2413L321.3202 293.2333L321.3202 293.2333L316.1382 296.2243z" stroke="none" fill="#181818" fill-rule="winding" /><g clip-path="url(#30)"><path transform="matrix(1 0 0 -1 0 677)" d="M242.3276 246.9864L204.0316 246.9864C 198.5276 246.9864 194.0236 251.4904 194.0236 256.9944L194.0236 256.9944L194.0236 275.9844" stroke="#181818" stroke-width="1" stroke-linecap="round" fill="none" /></g><path transform="matrix(1 0 0 -1 0 677)" d="M197.0156 275.1085L194.0236 280.2905L194.0236 280.2905L191.0316 275.1085z" stroke="none" fill="#181818" fill-rule="winding" /><g clip-path="url(#31)"><path transform="matrix(1 0 0 -1 0 677)" d="M242.3276 236.9864L155.8936 236.9864C 150.3896 236.9864 145.8856 241.4904 145.8856 246.9944L145.8856 246.9944L145.8856 385.7184C 145.8856 391.2234 149.9226 395.7274 154.8566 395.7274L154.8566 395.7274L159.5276 395.7274" stroke="#181818" stroke-width="1" stroke-linecap="round" fill="none" /></g><path transform="matrix(1 0 0 -1 0 677)" d="M158.6469 392.7349L163.8279 395.7269L163.8279 395.7269L158.6469 398.7189z" stroke="none" fill="#181818" fill-rule="winding" /><path transform="matrix(1 0 0 -1 0 677)" d="M220.053 385.216L168.72 385.216L168.72 385.216L168.72 405.883L168.72 405.883L220.053 405.883z" stroke="none" fill="#B6B6B6" fill-rule="winding" /><path transform="matrix(1 0 0 -1 0 677)" d="M298.052 334.216L246.719 334.216L246.719 334.216L246.719 354.883L246.719 354.883L298.052 354.883z" stroke="none" fill="#B6B6B6" fill-rule="winding" /><path transform="matrix(1 0 0 -1 0 677)" d="M377.719 385.216L326.386 385.216L326.386 385.216L326.386 405.883L326.386 405.883L377.719 405.883z" stroke="none" fill="#B6B6B6" fill-rule="winding" /><path transform="matrix(1 0 0 -1 0 677)" d="M377.72 282.882L326.387 282.882L326.387 282.882L326.387 303.549L326.387 303.549L377.72 303.549z" stroke="none" fill="#B6B6B6" fill-rule="winding" /><path transform="matrix(1 0 0 -1 0 677)" d="M218.72 282.882L167.387 282.882L167.387 282.882L167.387 303.549L167.387 303.549L218.72 303.549z" stroke="none" fill="#B6B6B6" fill-rule="winding" /><path transform="matrix(1 0 0 -1 0 677)" d="M298.052 230.548L246.719 230.548L246.719 230.548L246.719 251.215L246.719 251.215L298.052 251.215z" stroke="none" fill="#B6B6B6" fill-rule="winding" /><path transform="matrix(1 0 0 -1 0 677)" d="M272.3862 411.2989L296.6362 395.5489L296.6362 395.5489L272.3862 379.5489L272.3862 379.5489L249.8862 395.5489z" stroke="none" fill="#B6B6B6" fill-rule="winding" /><path transform="matrix(1 0 0 -1 0 677)" d="M271.5112 309.0899L295.7612 293.3399L295.7612 293.3399L271.5112 277.3399L271.5112 277.3399L249.0112 293.3399z" stroke="none" fill="#B6B6B6" fill-rule="winding" /><path transform="matrix(1 0 0 -1 0 677)" d="M314.386 396.703L302.886 396.703L302.886 396.703L302.886 407.049L302.886 407.049L314.386 407.049z" stroke="none" fill="#EAEAEA" fill-rule="winding" /><path transform="matrix(1 0 0 -1 0 677)" d="M285.886 363.953L274.386 363.953L274.386 363.953L274.386 374.299L274.386 374.299L285.886 374.299z" stroke="none" fill="#EAEAEA" fill-rule="winding" /><path transform="matrix(1 0 0 -1 0 677)" d="M314.386 295.036L302.886 295.036L302.886 295.036L302.886 305.382L302.886 305.382L314.386 305.382z" stroke="none" fill="#EAEAEA" fill-rule="winding" /><path transform="matrix(1 0 0 -1 0 677)" d="M285.886 262.036L274.386 262.036L274.386 262.036L274.386 272.382L274.386 272.382L285.886 272.382z" stroke="none" fill="#EAEAEA" fill-rule="winding" /><path transform="matrix(1 0 0 -1 0 677)" d="M80.082 418.527L452.832 418.527L452.832 418.527L452.832 217.992L452.832 217.992L80.082 217.992z" stroke="#181818" stroke-width="0.3" fill="none" /></g></g></g></svg>