<svg xmlns="http://www.w3.org/2000/svg" xmlns:xlink="http://www.w3.org/1999/xlink" id="body_4" preserveAspectRatio="xMinYMin meet" viewBox="0 0 695 903"><defs><clipPath id="1"><path d="M0 677L0 -0.4799805L0 -0.4799805L521.575 -0.4799805L521.575 -0.4799805L521.575 677L521.575 677L0 677z" /></clipPath><clipPath id="2"><path d="M371.682 503.106L453.543 503.106L453.543 503.106L453.543 481.41L453.543 481.41L371.682 481.41z" /></clipPath><clipPath id="3"><path d="M371.682 503.106L453.543 503.106L453.543 503.106L453.543 481.41L453.543 481.41L371.682 481.41z" /></clipPath><clipPath id="4"><path d="M79.37 80.66199L129.231 80.66199L129.231 80.66199L129.231 57.63L129.231 57.63L79.37 57.63z" /></clipPath></defs><g transform="matrix(1.333333 0 0 1.333333 0 0)"><g><g clip-path="url(#1)"><path transform="matrix(1 0 0 -1 0 677)" d="M371.682 195.591L453.543 195.591L453.543 195.591L453.543 173.895L453.543 173.895L371.682 173.895z" stroke="none" fill="#FFFFFF" fill-rule="winding" /><path transform="matrix(1 0 0 -1 0 677)" d="M371.682 173.895L453.543 173.895L453.543 173.895L453.543 195.591L453.543 195.591L371.682 195.591z" stroke="none" fill="#181818" fill-rule="winding" /><path transform="matrix(1 0 0 -1 0 677)" d="M411.1847 188.4932L411.1847 190.3462L411.1847 190.3462L403.4577 190.3462L403.4577 190.3462L403.4577 179.2302L403.4577 179.2302L411.1847 179.2302L411.1847 179.2302L411.1847 181.0832L411.1847 181.0832L405.3097 181.0832L405.3097 181.0832L405.3097 183.8602L405.3097 183.8602L410.9007 183.8602L410.9007 183.8602L410.9007 185.7122L410.9007 185.7122L405.3097 185.7122L405.3097 185.7122L405.3097 188.4932z" stroke="none" fill="#FFFFFF" fill-rule="winding" /><path transform="matrix(1 0 0 -1 0 677)" d="M416.9167 179.2305L416.9167 190.3445L416.9167 190.3445L418.7707 190.3445L418.7707 190.3445L418.7707 181.0835L418.7707 181.0835L424.1137 181.0835L424.1137 181.0835L424.1137 179.2305z" stroke="none" fill="#FFFFFF" fill-rule="winding" /><path transform="matrix(1 0 0 -1 0 677)" d="M425.6227 179.2305L425.6227 190.3445L425.6227 190.3445L427.4757 190.3445L427.4757 190.3445L427.4757 181.0835L427.4757 181.0835L432.8187 181.0835L432.8187 181.0835L432.8187 179.2305z" stroke="none" fill="#FFFFFF" fill-rule="winding" /><path transform="matrix(1 0 0 -1 0 677)" d="M413.129 190.345L414.979 190.345L414.979 190.345L414.979 179.231L414.979 179.231L413.129 179.231z" stroke="none" fill="#FFFFFF" fill-rule="winding" /><g clip-path="url(#2)"><path transform="matrix(1 0 0 -1 0 677)" d="M377.3223 184.7366C 377.3223 187.9336 379.9143 190.5246 383.1123 190.5256C 386.3093 190.5246 388.9003 187.9336 388.9003 184.7366C 388.9003 181.5406 386.3093 178.9496 383.1123 178.9476C 379.9143 178.9496 377.3223 181.5406 377.3223 184.7366M380.3273 187.5216C 379.6143 186.8046 379.1743 185.8266 379.1743 184.7366C 379.1743 183.6466 379.6143 182.6716 380.3273 181.9556C 381.0443 181.2396 382.0203 180.7996 383.1123 180.7996C 384.2013 180.7996 385.1803 181.2396 385.8943 181.9556C 386.6083 182.6716 387.0473 183.6466 387.0473 184.7366C 387.0473 185.8266 386.6083 186.8046 385.8943 187.5216C 385.1803 188.2336 384.2013 188.6706 383.1123 188.6716C 382.0203 188.6706 381.0443 188.2336 380.3273 187.5216" stroke="none" fill="#FFFFFF" fill-rule="winding" /><path transform="matrix(1 0 0 -1 0 677)" d="M399.2862 183.999C 400.6232 184.4 401.5982 185.635 401.6012 187.104C 401.5982 188.893 400.1482 190.345 398.3582 190.345L398.3582 190.345L392.7722 190.345L392.7722 190.345L392.7722 179.23L392.7722 179.23L394.6252 179.23L394.6252 179.23L394.6252 183.86L394.6252 183.86L397.2072 183.86L397.2072 183.86L400.0002 179.23L400.0002 179.23L402.1612 179.23zM394.6252 185.713L394.6252 188.493L394.6252 188.493L398.3582 188.493C 399.1242 188.492 399.7452 187.871 399.7462 187.104C 399.7452 186.338 399.1242 185.714 398.3582 185.713z" stroke="none" fill="#FFFFFF" fill-rule="winding" /><path transform="matrix(1 0 0 -1 0 677)" d="M391.4611 189.1612C 391.4611 188.4082 390.8491 187.7992 390.0961 187.7992C 389.3431 187.7992 388.7341 188.4082 388.7341 189.1612C 388.7341 189.9162 389.3431 190.5262 390.0961 190.5262C 390.8491 190.5262 391.4611 189.9162 391.4611 189.1612" stroke="none" fill="#FFFFFF" fill-rule="winding" /></g><path transform="matrix(1 0 0 -1 0 677)" d="M441.0788 190.3448L438.8268 190.3448L438.8268 190.3448L435.9758 186.2188L435.9758 186.2188L433.1258 190.3448L433.1258 190.3448L430.8738 190.3448L430.8738 190.3448L435.0478 184.3008L435.0478 184.3008L435.0478 179.2308L435.0478 179.2308L436.8998 179.2308L436.8998 179.2308L436.8998 184.2958z" stroke="none" fill="#FFFFFF" fill-rule="winding" /><g clip-path="url(#3)"><path transform="matrix(1 0 0 -1 0 677)" d="M445.6882 190.8541C 444.0822 190.8541 442.7762 189.5541 442.7762 187.9401C 442.7762 186.3381 444.0822 185.0341 445.6882 185.0341C 447.2942 185.0341 448.5982 186.3381 448.5982 187.9401C 448.5982 189.5541 447.2942 190.8541 445.6882 190.8541M445.6882 185.4971C 444.3362 185.4971 443.2412 186.5951 443.2412 187.9401C 443.2412 189.2961 444.3362 190.3921 445.6882 190.3921C 447.0342 190.3921 448.1322 189.2961 448.1322 187.9401C 448.1322 186.5951 447.0342 185.4971 445.6882 185.4971" stroke="none" fill="#FFFFFF" fill-rule="winding" /><path transform="matrix(1 0 0 -1 0 677)" d="M446.994 188.5831C 446.994 189.0641 446.608 189.4541 446.13 189.4541L446.13 189.4541L444.49 189.4541L444.49 189.4541L444.49 186.4811L444.49 186.4811L444.985 186.4811L444.985 186.4811L444.985 187.7151L444.985 187.7151L445.813 187.7151L445.813 187.7151L446.408 186.4811L446.408 186.4811L446.959 186.4811L446.959 186.4811L446.348 187.7471C 446.721 187.8421 446.994 188.1801 446.994 188.5831M444.985 188.9561L446.13 188.9561C 446.336 188.9561 446.499 188.7901 446.5 188.5831C 446.499 188.3791 446.336 188.2151 446.13 188.2151L446.13 188.2151L444.985 188.2151z" stroke="none" fill="#FFFFFF" fill-rule="winding" /></g><g clip-path="url(#4)"><g transform="matrix(0.2397173 0 0 0.239613 79.37009 57.62988)"><g transform="matrix(1 0 0 1 0 0)"><image x="0" y="0" xlink:href="img_07.png" width="208" height="97" /></g></g></g><path transform="matrix(1 0 0 -1 0 677)" d="M79.3701 502.191L453.5431 502.191" stroke="#181818" stroke-width="0.5" fill="none" /></g></g></g></svg>