<svg xmlns="http://www.w3.org/2000/svg" xmlns:xlink="http://www.w3.org/1999/xlink" id="body_221" preserveAspectRatio="xMinYMin meet" viewBox="0 0 695 903"><defs><clipPath id="1"><path d="M0 677L0 -0.3953247L0 -0.3953247L521.5181 -0.3953247L521.5181 -0.3953247L521.5181 677L521.5181 677L0 677z" /></clipPath><clipPath id="2"><path d="M0 677L521.518 677L521.518 677L521.518 -0.3950195L521.518 -0.3950195L0 -0.3950195z" /></clipPath><clipPath id="3"><path d="M40.593 620.307L480.925 620.307L480.925 620.307L480.925 52.09802L480.925 52.09802L40.593 52.09802z" /></clipPath><clipPath id="4"><path d="M56.693 251.75L413.027 251.75L413.027 251.75L413.027 56.29797L413.027 56.29797L56.693 56.29797z" /></clipPath><clipPath id="5"><path d="M0 336.564L521.518 336.564L521.518 336.564L521.518 332.564L521.518 332.564L0 332.564z" /></clipPath></defs><g transform="matrix(1.333333 0 0 1.333333 0 0)"><g><g clip-path="url(#1)"><g clip-path="url(#2)"><path transform="matrix(1 0 0 -1 0 677)" d="M0 677.3953L522 677.3953L522 677.3953L522 -0.6046753L522 -0.6046753L0 -0.6046753z" stroke="none" fill="#FFFFFF" fill-rule="winding" /></g><g clip-path="url(#3)"></g><g clip-path="url(#4)"><g transform="matrix(0.9971989 0 0 1 57 56.60474)"><g transform="matrix(1 0 0 1 0 0)"><image x="0" y="0" xlink:href="img_266.png" width="357" height="195" /></g></g></g><g clip-path="url(#5)"><path transform="matrix(1 0 0 -1 0 677)" d="M0 342.4357L595.28 342.4357" stroke="#EDEDED" stroke-width="2" fill="none" /></g></g></g></g></svg>