<svg xmlns="http://www.w3.org/2000/svg" xmlns:xlink="http://www.w3.org/1999/xlink" id="body_41" preserveAspectRatio="xMinYMin meet" viewBox="0 0 695 903"><defs><clipPath id="1"><path d="M0 677L0 -0.4799805L0 -0.4799805L521.575 -0.4799805L521.575 -0.4799805L521.575 677L521.575 677L0 677z" /></clipPath><clipPath id="2"><path d="M0 -0.4799805L521.575 -0.4799805L521.575 -0.4799805L521.575 677L521.575 677L0 677z" /></clipPath><clipPath id="3"><path d="M0 -0.4799805L521.575 -0.4799805L521.575 -0.4799805L521.575 677L521.575 677L0 677z" /></clipPath><clipPath id="4"><path d="M495.567 133.638L553.252 133.638L553.252 133.638L553.252 164.929L553.252 164.929L495.567 164.929z" /></clipPath></defs><g transform="matrix(1.333333 0 0 1.333333 0 0)"><g><g clip-path="url(#1)"><g clip-path="url(#2)"><path transform="matrix(1 0 0 -1 0 677)" d="M68.03149 53.7166L442.2045 53.7166" stroke="#020202" stroke-width="0.283" fill="none" /></g><g clip-path="url(#3)"><g><g clip-path="url(#4)"><path transform="matrix(1 0 0 -1 0 677)" d="M505.067 513.571L543.752 513.571L543.752 513.571L543.752 541.862L543.752 541.862L505.067 541.862z" stroke="#FFFFFF" stroke-width="1" fill="#000000" fill-rule="winding" fill-opacity="0" /></g></g></g><path transform="matrix(1 0 0 -1 0 677)" d="M360 549.346L442.205 549.346L442.205 549.346L442.205 535.677L442.205 535.677L360 535.677zM285.732 549.346L360 549.346L360 549.346L360 535.677L360 535.677L285.732 535.677zM106.299 549.346L285.732 549.346L285.732 549.346L285.732 535.677L285.732 535.677L106.299 535.677zM68.031 549.346L106.299 549.346L106.299 549.346L106.299 535.677L106.299 535.677L68.031 535.677z" stroke="none" fill="#E1E1E1" fill-rule="winding" /><path transform="matrix(1 0 0 -1 0 677)" d="M68.03149 549.3464L106.2995 549.3464" stroke="#181818" stroke-width="1" fill="none" /><path transform="matrix(1 0 0 -1 0 677)" d="M106.2992 549.3464L285.7322 549.3464" stroke="#181818" stroke-width="1" fill="none" /><path transform="matrix(1 0 0 -1 0 677)" d="M285.7323 549.3464L360.0003 549.3464" stroke="#181818" stroke-width="1" fill="none" /><path transform="matrix(1 0 0 -1 0 677)" d="M360 549.3464L442.205 549.3464" stroke="#181818" stroke-width="1" fill="none" /><path transform="matrix(1 0 0 -1 0 677)" d="M68.03149 203.6457L106.2995 203.6457" stroke="#181818" stroke-width="1" fill="none" /><path transform="matrix(1 0 0 -1 0 677)" d="M106.2992 203.6457L285.7322 203.6457" stroke="#181818" stroke-width="1" fill="none" /><path transform="matrix(1 0 0 -1 0 677)" d="M285.7323 203.6457L360.0003 203.6457" stroke="#181818" stroke-width="1" fill="none" /><path transform="matrix(1 0 0 -1 0 677)" d="M360 203.6457L442.205 203.6457" stroke="#181818" stroke-width="1" fill="none" /><path transform="matrix(1 0 0 -1 0 677)" d="M68.03149 535.6771L106.2995 535.6771" stroke="#181818" stroke-width="0.5" fill="none" /><path transform="matrix(1 0 0 -1 0 677)" d="M106.2992 535.6771L285.7322 535.6771" stroke="#181818" stroke-width="0.5" fill="none" /><path transform="matrix(1 0 0 -1 0 677)" d="M285.7323 535.6771L360.0003 535.6771" stroke="#181818" stroke-width="0.5" fill="none" /><path transform="matrix(1 0 0 -1 0 677)" d="M360 535.6771L442.205 535.6771" stroke="#181818" stroke-width="0.5" fill="none" /><g transform="matrix(0.07923931 0 0 0.0792393 70.53149 491.2696)"><g transform="matrix(1 0 0 1 0 0)"><image x="0" y="0" xlink:href="img_23.png" width="631" height="596" /></g></g></g></g></g></svg>