<svg xmlns="http://www.w3.org/2000/svg" xmlns:xlink="http://www.w3.org/1999/xlink" id="body_55" preserveAspectRatio="xMinYMin meet" viewBox="0 0 695 903"><defs><clipPath id="1"><path d="M0 677L0 -0.4799805L0 -0.4799805L521.575 -0.4799805L521.575 -0.4799805L521.575 677L521.575 677L0 677z" /></clipPath><clipPath id="2"><path d="M0 -0.4799805L521.575 -0.4799805L521.575 -0.4799805L521.575 677L521.575 677L0 677z" /></clipPath><clipPath id="3"><path d="M0 -0.4799805L521.575 -0.4799805L521.575 -0.4799805L521.575 677L521.575 677L0 677z" /></clipPath><clipPath id="4"><path d="M495.567 133.638L553.252 133.638L553.252 133.638L553.252 164.929L553.252 164.929L495.567 164.929z" /></clipPath></defs><g transform="matrix(1.333333 0 0 1.333333 0 0)"><g><g clip-path="url(#1)"><g clip-path="url(#2)"><path transform="matrix(1 0 0 -1 0 677)" d="M68.03149 53.7166L442.2045 53.7166" stroke="#020202" stroke-width="0.283" fill="none" /></g><g clip-path="url(#3)"><g><g clip-path="url(#4)"><path transform="matrix(1 0 0 -1 0 677)" d="M505.067 513.571L543.752 513.571L543.752 513.571L543.752 541.862L543.752 541.862L505.067 541.862z" stroke="#FFFFFF" stroke-width="1" fill="#000000" fill-rule="winding" fill-opacity="0" /></g></g></g><g transform="matrix(0.2208528 0 0 0.2208528 141.5996 217.956)"><g transform="matrix(1 0 0 1 0 0)"><image x="0" y="0" xlink:href="img_65.png" width="1028" height="418" /></g></g><path transform="matrix(1 0 0 -1 0 677)" d="M199.6 427.044L149.1 427.044L149.1 427.044L149.1 446.544L149.1 446.544L199.6 446.544z" stroke="none" fill="#B6B6B6" fill-rule="winding" /><path transform="matrix(1 0 0 -1 0 677)" d="M358.6 427.044L308.1 427.044L308.1 427.044L308.1 446.544L308.1 446.544L358.6 446.544z" stroke="none" fill="#B6B6B6" fill-rule="winding" /><path transform="matrix(1 0 0 -1 0 677)" d="M277.1 375.294L226.6 375.294L226.6 375.294L226.6 394.794L226.6 394.794L277.1 394.794z" stroke="none" fill="#B6B6B6" fill-rule="winding" /><path transform="matrix(1 0 0 -1 0 677)" d="M251.8496 451.794L239.3496 443.044L239.3496 443.044L235.5996 434.544L235.5996 434.544L253.8496 420.794L253.8496 420.794L274.0996 433.794L274.0996 433.794L264.0996 446.544z" stroke="none" fill="#B6B6B6" fill-rule="winding" /><path transform="matrix(1 0 0 -1 0 677)" d="M269.1 405.794L255.119 405.794L255.119 405.794L255.119 415.044L255.119 415.044L269.1 415.044z" stroke="none" fill="#FFFFFF" fill-rule="winding" /><path transform="matrix(1 0 0 -1 0 677)" d="M296.35 438.115L285.369 438.115L285.369 438.115L285.369 447.365L285.369 447.365L296.35 447.365z" stroke="none" fill="#FFFFFF" fill-rule="winding" /><path transform="matrix(1 0 0 -1 0 677)" d="M68.182 467.653L442.055 467.653L442.055 467.653L442.055 358.118L442.055 358.118L68.182 358.118z" stroke="#181818" stroke-width="0.3" fill="none" /><g transform="matrix(0.07923931 0 0 0.0792393 70.53149 358.366)"><g transform="matrix(1 0 0 1 0 0)"><image x="0" y="0" xlink:href="img_23.png" width="631" height="596" /></g></g></g></g></g></svg>