<svg xmlns="http://www.w3.org/2000/svg" xmlns:xlink="http://www.w3.org/1999/xlink" id="body_135" preserveAspectRatio="xMinYMin meet" viewBox="0 0 695 903"><defs><clipPath id="1"><path d="M0 677L0 -0.4799805L0 -0.4799805L521.575 -0.4799805L521.575 -0.4799805L521.575 677L521.575 677L0 677z" /></clipPath><clipPath id="2"><path d="M0 -0.4799805L521.575 -0.4799805L521.575 -0.4799805L521.575 677L521.575 677L0 677z" /></clipPath><clipPath id="3"><path d="M0 -0.4799805L521.575 -0.4799805L521.575 -0.4799805L521.575 677L521.575 677L0 677z" /></clipPath><clipPath id="4"><path d="M-9 133.638L48.685 133.638L48.685 133.638L48.685 164.929L48.685 164.929L-9 164.929z" /></clipPath></defs><g transform="matrix(1.333333 0 0 1.333333 0 0)"><g><g clip-path="url(#1)"><g clip-path="url(#2)"><path transform="matrix(1 0 0 -1 0 677)" d="M79.1969 53.7166L453.3699 53.7166" stroke="#020202" stroke-width="0.283" fill="none" /></g><g clip-path="url(#3)"><g><g clip-path="url(#4)"><path transform="matrix(1 0 0 -1 0 677)" d="M0.5 513.571L39.185 513.571L39.185 513.571L39.185 541.862L39.185 541.862L0.5 541.862z" stroke="#FFFFFF" stroke-width="1" fill="#000000" fill-rule="winding" fill-opacity="0" /></g></g></g><path transform="matrix(1 0 0 -1 0 677)" d="M133.228 590.645L361.7 590.645L361.7 590.645L361.7 574.584L361.7 574.584L133.228 574.584zM88.174 590.645L133.228 590.645L133.228 590.645L133.228 574.584L133.228 574.584L88.174 574.584z" stroke="none" fill="#E1E1E1" fill-rule="winding" /><path transform="matrix(1 0 0 -1 0 677)" d="M88.174 590.6445L133.228 590.6445" stroke="#181818" stroke-width="1" fill="none" /><path transform="matrix(1 0 0 -1 0 677)" d="M133.2283 590.6445L361.7003 590.6445" stroke="#181818" stroke-width="1" fill="none" /><path transform="matrix(1 0 0 -1 0 677)" d="M88.174 383.2134L133.228 383.2134" stroke="#181818" stroke-width="1" fill="none" /><path transform="matrix(1 0 0 -1 0 677)" d="M133.2283 383.2134L361.7003 383.2134" stroke="#181818" stroke-width="1" fill="none" /><path transform="matrix(1 0 0 -1 0 677)" d="M88.174 574.5835L133.228 574.5835" stroke="#181818" stroke-width="0.5" fill="none" /><path transform="matrix(1 0 0 -1 0 677)" d="M133.2283 574.5835L361.7003 574.5835" stroke="#181818" stroke-width="0.5" fill="none" /><path transform="matrix(1 0 0 -1 0 677)" d="M79.52 374.059L453.393 374.059L453.393 374.059L453.393 617.801L453.393 617.801L79.52 617.801z" stroke="#181818" stroke-width="0.3" fill="none" /><path transform="matrix(1 0 0 -1 0 677)" d="M62.512 612.434L461.897 612.434L461.897 612.434L461.897 630.559L461.897 630.559L62.512 630.559z" stroke="#FFFFFF" stroke-width="0.3" fill="#FFFFFF" fill-rule="winding" /></g></g></g></svg>