<svg xmlns="http://www.w3.org/2000/svg" xmlns:xlink="http://www.w3.org/1999/xlink" id="body_68" preserveAspectRatio="xMinYMin meet" viewBox="0 0 695 903"><defs><clipPath id="1"><path d="M0 677L0 -0.4799805L0 -0.4799805L521.575 -0.4799805L521.575 -0.4799805L521.575 677L521.575 677L0 677z" /></clipPath><clipPath id="2"><path d="M0 -0.4799805L521.575 -0.4799805L521.575 -0.4799805L521.575 677L521.575 677L0 677z" /></clipPath><clipPath id="3"><path d="M0 -0.4799805L521.575 -0.4799805L521.575 -0.4799805L521.575 677L521.575 677L0 677z" /></clipPath><clipPath id="4"><path d="M-9 133.638L48.685 133.638L48.685 133.638L48.685 164.929L48.685 164.929L-9 164.929z" /></clipPath><clipPath id="5"><path d="M119.577 588.707L413.337 588.707L413.337 588.707L413.337 366.781L413.337 366.781L119.577 366.781z" /></clipPath></defs><g transform="matrix(1.333333 0 0 1.333333 0 0)"><g><g clip-path="url(#1)"><g clip-path="url(#2)"><path transform="matrix(1 0 0 -1 0 677)" d="M79.1969 53.7166L453.3699 53.7166" stroke="#020202" stroke-width="0.283" fill="none" /></g><g clip-path="url(#3)"><g><g clip-path="url(#4)"><path transform="matrix(1 0 0 -1 0 677)" d="M0.5 513.571L39.185 513.571L39.185 513.571L39.185 541.862L39.185 541.862L0.5 541.862z" stroke="#FFFFFF" stroke-width="1" fill="#000000" fill-rule="winding" fill-opacity="0" /></g></g></g><g transform="matrix(0.3834987 0 0 0.3834987 119.5767 65.97064)"><g transform="matrix(1 0 0 1 0 0)"><image x="0" y="0" xlink:href="img_81.png" width="766" height="570" /></g></g><path transform="matrix(1 0 0 -1 0 677)" d="M79.37 617.803L453.543 617.803L453.543 617.803L453.543 385.662L453.543 385.662L79.37 385.662z" stroke="#181818" stroke-width="0.3" fill="none" /><g clip-path="url(#5)"><g transform="matrix(0.3780695 0 0 0.3780694 119.5767 366.7809)"><g transform="matrix(1 0 0 1 0 0)"><image x="0" y="0" xlink:href="img_82.png" width="777" height="587" /></g></g></g><path transform="matrix(1 0 0 -1 0 677)" d="M79.37 314.031L453.543 314.031L453.543 314.031L453.543 84.481L453.543 84.481L79.37 84.481z" stroke="#181818" stroke-width="0.3" fill="none" /></g></g></g></svg>