<svg xmlns="http://www.w3.org/2000/svg" xmlns:xlink="http://www.w3.org/1999/xlink" id="body_203" preserveAspectRatio="xMinYMin meet" viewBox="0 0 695 903"><defs><clipPath id="1"><path d="M0 677L0 -0.4799805L0 -0.4799805L521.575 -0.4799805L521.575 -0.4799805L521.575 677L521.575 677L0 677z" /></clipPath><clipPath id="2"><path d="M0 -0.4799805L521.575 -0.4799805L521.575 -0.4799805L521.575 677L521.575 677L0 677z" /></clipPath><clipPath id="3"><path d="M0 677L521.575 677L521.575 677L521.575 -0.4799805L521.575 -0.4799805L0 -0.4799805z" /></clipPath><clipPath id="4"><path d="M0 -0.4799805L521.575 -0.4799805L521.575 -0.4799805L521.575 677L521.575 677L0 677z" /></clipPath><clipPath id="5"><path d="M-9 133.638L48.685 133.638L48.685 133.638L48.685 164.929L48.685 164.929L-9 164.929z" /></clipPath><clipPath id="6"><path d="M0 677L521.575 677L521.575 677L521.575 -0.4799805L521.575 -0.4799805L0 -0.4799805z" /></clipPath><clipPath id="7"><path d="M-448.347 262.142L14.66931 262.142L14.66931 262.142L14.66931 574.355L14.66931 574.355L-448.347 574.355z" /></clipPath><clipPath id="8"><path d="M-439.348 573.355L5.669006 573.355L5.669006 573.355L5.669006 263.141L5.669006 263.141L-439.348 263.141z" /></clipPath><clipPath id="9"><path d="M166.382 274.911L366.531 274.911L366.531 274.911L366.531 67.42004L366.531 67.42004L166.382 67.42004z" /></clipPath><clipPath id="10"><path d="M166.382 274.911L366.531 274.911L366.531 274.911L366.531 67.42004L366.531 67.42004L166.382 67.42004z" /></clipPath><clipPath id="11"><path d="M166.382 274.911L366.531 274.911L366.531 274.911L366.531 67.42004L366.531 67.42004L166.382 67.42004z" /></clipPath><clipPath id="12"><path d="M166.382 274.911L366.531 274.911L366.531 274.911L366.531 67.42004L366.531 67.42004L166.382 67.42004z" /></clipPath><clipPath id="13"><path d="M166.382 274.911L366.531 274.911L366.531 274.911L366.531 67.42004L366.531 67.42004L166.382 67.42004z" /></clipPath><clipPath id="14"><path d="M166.382 274.911L366.531 274.911L366.531 274.911L366.531 67.42004L366.531 67.42004L166.382 67.42004z" /></clipPath></defs><g transform="matrix(1.333333 0 0 1.333333 0 0)"><g><g clip-path="url(#1)"><g clip-path="url(#2)"><path transform="matrix(1 0 0 -1 0 677)" d="M79.1969 53.7166L453.3699 53.7166" stroke="#020202" stroke-width="0.283" fill="none" /></g><g clip-path="url(#3)"><g clip-path="url(#4)"><g><g clip-path="url(#5)"><path transform="matrix(1 0 0 -1 0 677)" d="M0.5 513.571L39.185 513.571L39.185 513.571L39.185 541.862L39.185 541.862L0.5 541.862z" stroke="#FFFFFF" stroke-width="1" fill="#000000" fill-rule="winding" fill-opacity="0" /></g></g><g clip-path="url(#6)"><g><g clip-path="url(#7)"><g clip-path="url(#8)"><g transform="matrix(0.2360831 0 0 0.2360831 -439.3474 263.1417)"><g transform="matrix(1 0 0 1 0 0)"><image x="0" y="0" xlink:href="img_153.png" width="1885" height="1314" /></g></g></g></g></g></g></g></g><path transform="matrix(1 0 0 -1 0 677)" d="M166.8822 506.8256L188.0262 494.7126L188.0262 494.7126L188.0262 496.0206L188.0262 496.0206L166.8822 508.1326z" stroke="none" fill="#C8C8C8" fill-rule="winding" /><path transform="matrix(1 0 0 -1 0 677)" d="M188.0262 496.0219L202.7562 504.4009L202.7562 504.4009L202.7562 503.0909L202.7562 503.0909L188.0262 494.7099z" stroke="none" fill="#838383" fill-rule="winding" /><path transform="matrix(1 0 0 -1 0 677)" d="M166.8822 508.1308L188.0262 496.0218L188.0262 496.0218L202.7572 504.4008L202.7572 504.4008L181.5912 516.5598z" stroke="none" fill="#FFFFFF" fill-rule="winding" /><path transform="matrix(1 0 0 -1 0 677)" d="M204.8055 523.4081L205.7935 523.9701L205.7935 523.9701L203.7335 505.0051L203.7335 505.0051L202.7425 504.4421z" stroke="none" fill="#989898" fill-rule="winding" /><path transform="matrix(1 0 0 -1 0 677)" d="M189.8563 499.3051L189.8563 499.0511L189.8563 499.0511L171.9833 509.2881L171.9833 509.2881L171.9833 509.5401z" stroke="none" fill="#989898" fill-rule="winding" /><path transform="matrix(1 0 0 -1 0 677)" d="M189.8563 499.3051L199.9793 505.0641L199.9793 505.0641L199.9793 504.8091L199.9793 504.8091L189.8563 499.0491z" stroke="none" fill="#B0B0B0" fill-rule="winding" /><path transform="matrix(1 0 0 -1 0 677)" d="M171.9833 509.5389L182.0903 515.3389L182.0903 515.3389L199.9793 505.0629L199.9793 505.0629L189.8563 499.3049z" stroke="none" fill="#E1E1E1" fill-rule="winding" /><path transform="matrix(1 0 0 -1 0 677)" d="M174.5536 504.0629L177.4556 505.7299L177.4556 505.7299L182.5906 502.7779L182.5906 502.7779L179.6846 501.1249z" stroke="none" fill="#E1E1E1" fill-rule="winding" /><path transform="matrix(1 0 0 -1 0 677)" d="M204.8055 523.4081L202.7425 504.4431L202.7425 504.4431L181.5985 516.5551L181.5985 516.5551L183.6595 535.5201z" stroke="none" fill="#E1E1E1" fill-rule="winding" /><path transform="matrix(1 0 0 -1 0 677)" d="M201.9012 505.8979L182.4422 517.0439L182.4422 517.0439L184.5032 534.0649L184.5032 534.0649L203.9622 522.9189z" stroke="none" fill="#595959" fill-rule="winding" /><path transform="matrix(1 0 0 -1 0 677)" d="M183.659 535.5184L184.63 536.1295L184.63 536.1295L205.794 523.9705L205.794 523.9705L204.805 523.4084z" stroke="none" fill="#B0B0B0" fill-rule="winding" /><g clip-path="url(#9)"><path transform="matrix(1 0 0 -1 0 677)" d="M203.7333 505.0052L205.7943 523.9702L205.7943 523.9702L184.6293 536.1292L184.6293 536.1292L183.6613 535.5192L183.6613 535.5192L183.6593 535.5202L183.6593 535.5202L181.5983 516.5562L181.5983 516.5562L181.5903 516.5602L181.5903 516.5602L166.8833 508.1322L166.8833 508.1322L166.8813 508.1322L166.8813 508.1322L166.8813 506.8252L166.8813 506.8252L188.0263 494.7132L188.0263 494.7132L188.0263 494.7112L188.0263 494.7112L202.7563 503.0922L202.7563 503.0922L202.7563 504.4002L202.7563 504.4002L202.7433 504.4432L202.7433 504.4432L202.7433 504.4412L202.7433 504.4412L203.7333 505.0052z" stroke="#181818" stroke-width="1" stroke-linecap="round" fill="none" /></g><path transform="matrix(1 0 0 -1 0 677)" d="M166.8822 428.1927L188.0262 416.0807L188.0262 416.0807L188.0262 417.3887L188.0262 417.3887L166.8822 429.4997z" stroke="none" fill="#C8C8C8" fill-rule="winding" /><path transform="matrix(1 0 0 -1 0 677)" d="M188.0262 417.3891L202.7562 425.7681L202.7562 425.7681L202.7562 424.4591L202.7562 424.4591L188.0262 416.0781z" stroke="none" fill="#838383" fill-rule="winding" /><path transform="matrix(1 0 0 -1 0 677)" d="M166.8822 429.4975L188.0262 417.3895L188.0262 417.3895L202.7572 425.7685L202.7572 425.7685L181.5912 437.9285z" stroke="none" fill="#FFFFFF" fill-rule="winding" /><path transform="matrix(1 0 0 -1 0 677)" d="M204.8055 444.7758L205.7935 445.3378L205.7935 445.3378L203.7335 426.3728L203.7335 426.3728L202.7425 425.8088z" stroke="none" fill="#989898" fill-rule="winding" /><path transform="matrix(1 0 0 -1 0 677)" d="M189.8563 420.6722L189.8563 420.4182L189.8563 420.4182L171.9833 430.6552L171.9833 430.6552L171.9833 430.9072z" stroke="none" fill="#989898" fill-rule="winding" /><path transform="matrix(1 0 0 -1 0 677)" d="M189.8563 420.6722L199.9793 426.4312L199.9793 426.4312L199.9793 426.1762L199.9793 426.1762L189.8563 420.4162z" stroke="none" fill="#B0B0B0" fill-rule="winding" /><path transform="matrix(1 0 0 -1 0 677)" d="M171.9833 430.9066L182.0903 436.7066L182.0903 436.7066L199.9793 426.4306L199.9793 426.4306L189.8563 420.6736z" stroke="none" fill="#E1E1E1" fill-rule="winding" /><path transform="matrix(1 0 0 -1 0 677)" d="M174.5536 425.4311L177.4556 427.0971L177.4556 427.0971L182.5906 424.1461L182.5906 424.1461L179.6846 422.4931z" stroke="none" fill="#E1E1E1" fill-rule="winding" /><path transform="matrix(1 0 0 -1 0 677)" d="M204.8055 444.7758L202.7425 425.8098L202.7425 425.8098L181.5985 437.9218L181.5985 437.9218L183.6595 456.8868z" stroke="none" fill="#E1E1E1" fill-rule="winding" /><path transform="matrix(1 0 0 -1 0 677)" d="M201.9012 427.266L182.4422 438.412L182.4422 438.412L184.5032 455.433L184.5032 455.433L203.9622 444.287z" stroke="none" fill="#595959" fill-rule="winding" /><path transform="matrix(1 0 0 -1 0 677)" d="M183.659 456.8862L184.63 457.4962L184.63 457.4962L205.794 445.3382L205.794 445.3382L204.805 444.7762z" stroke="none" fill="#B0B0B0" fill-rule="winding" /><g clip-path="url(#10)"><path transform="matrix(1 0 0 -1 0 677)" d="M203.7333 426.3725L205.7943 445.3375L205.7943 445.3375L184.6293 457.4965L184.6293 457.4965L183.6613 456.8865L183.6613 456.8865L183.6593 456.8875L183.6593 456.8875L181.5983 437.9235L181.5983 437.9235L181.5903 437.9275L181.5903 437.9275L166.8833 429.4995L166.8833 429.4995L166.8813 429.4995L166.8813 429.4995L166.8813 428.1925L166.8813 428.1925L188.0263 416.0805L188.0263 416.0805L188.0263 416.0785L188.0263 416.0785L202.7563 424.4595L202.7563 424.4595L202.7563 425.7685L202.7563 425.7685L202.7433 425.8105L202.7433 425.8105L202.7433 425.8095L202.7433 425.8095L203.7333 426.3725z" stroke="#181818" stroke-width="1" stroke-linecap="round" fill="none" /></g><path transform="matrix(1 0 0 -1 0 677)" d="M176.954 589.8231L176.954 577.4041L176.954 577.4041L171.192 580.7201L171.192 580.7201L171.192 593.1571z" stroke="none" fill="#C8C8C8" fill-rule="winding" /><path transform="matrix(1 0 0 -1 0 677)" d="M176.954 589.8231L185.194 594.5791L185.194 594.5791L185.194 582.1411L185.194 582.1411L176.954 577.3851z" stroke="none" fill="#838383" fill-rule="winding" /><path transform="matrix(1 0 0 -1 0 677)" d="M171.1922 593.1576L179.4582 597.8996L179.4582 597.8996L185.1942 594.5836L185.1942 594.5836L176.9542 589.8236z" stroke="none" fill="#EEEEEE" fill-rule="winding" /><path transform="matrix(1 0 0 -1 0 677)" d="M176.4169 588.2968L176.4169 587.3858L176.4169 587.3858L171.5649 590.1848L171.5649 590.1848L171.5649 591.0958z" stroke="none" fill="#838383" fill-rule="winding" /><path transform="matrix(1 0 0 -1 0 677)" d="M176.4169 586.7811L176.4169 585.8691L176.4169 585.8691L171.5649 588.6681L171.5649 588.6681L171.5649 589.5801z" stroke="none" fill="#838383" fill-rule="winding" /><g clip-path="url(#11)"><path transform="matrix(1 0 0 -1 0 677)" d="M200.7606 579.3041C 200.7526 579.2201 200.7486 579.136 200.7336 579.0521C 200.7196 578.9871 200.6996 578.9231 200.6846 578.8591C 200.6626 578.7801 200.6456 578.701 200.6156 578.6221C 200.5946 578.5611 200.5676 578.5001 200.5376 578.438C 200.5026 578.3571 200.4676 578.2761 200.4246 578.1951C 200.3936 578.1381 200.3566 578.0811 200.3216 578.0251C 200.2646 577.9331 200.2056 577.8421 200.1396 577.7521C 200.0746 577.6691 200.0106 577.5851 199.9386 577.5021C 199.9186 577.4811 199.9036 577.4601 199.8836 577.4401C 199.7836 577.3321 199.6746 577.2261 199.5616 577.1221C 199.4836 577.0541 199.4016 576.9891 199.3216 576.9221C 199.2486 576.8661 199.1826 576.8101 199.1066 576.7541C 199.0166 576.6901 198.9206 576.6281 198.8246 576.5671C 198.7276 576.5051 198.6396 576.4411 198.5336 576.3811C 198.3036 576.2461 198.0596 576.1251 197.8056 576.0121C 197.7336 575.9791 197.6586 575.9491 197.5866 575.9181C 197.3896 575.8351 197.1866 575.7591 196.9816 575.6891C 196.9056 575.6631 196.8306 575.6351 196.7546 575.6111C 196.6276 575.5711 196.4946 575.5351 196.3656 575.4991C 196.2606 575.4711 196.1586 575.4421 196.0536 575.4171C 195.9186 575.3831 195.7806 575.3561 195.6456 575.3281C 195.5396 575.3071 195.4386 575.2831 195.3346 575.2651C 195.0476 575.2151 194.7546 575.1741 194.4616 575.1441C 194.3656 575.1341 194.2726 575.1281 194.1766 575.1201C 194.0046 575.1051 193.8366 575.0941 193.6646 575.0861C 193.5516 575.0811 193.4386 575.0781 193.3266 575.0771C 193.1846 575.0741 193.0436 575.0731 192.9056 575.0741C 192.7856 575.076 192.6666 575.0801 192.5496 575.0851C 192.4186 575.0901 192.2896 575.0971 192.1606 575.1051C 192.0396 575.1141 191.9166 575.1241 191.7976 575.136C 191.6706 575.1481 191.5456 575.162 191.4206 575.1771C 191.3036 575.1931 191.1826 575.2101 191.0636 575.2291C 190.9326 575.248 190.7996 575.2721 190.6666 575.2971C 190.5576 575.3181 190.4466 575.3391 190.3366 575.3641C 190.1786 575.399 190.0246 575.438 189.8676 575.4781C 189.7786 575.5031 189.6846 575.5261 189.5946 575.5521C 189.3136 575.6351 189.0356 575.7271 188.7686 575.8311C 188.6316 575.8841 188.4986 575.9431 188.3656 576.0021C 188.3036 576.0301 188.2396 576.0551 188.1786 576.0841C 187.9836 576.1771 187.7936 576.2751 187.6106 576.3811C 186.0866 577.2591 185.3266 578.4141 185.3306 579.5651L185.3306 579.5651L185.2976 578.8691C 185.2936 577.7171 186.0556 576.563 187.5766 575.6831C 187.7586 575.5771 187.9496 575.4811 188.1436 575.3871C 188.2096 575.3561 188.2786 575.3281 188.3486 575.2991C 188.4616 575.248 188.5746 575.1951 188.6926 575.149C 188.7056 575.1431 188.7196 575.1401 188.7336 575.136C 189.0006 575.0311 189.2806 574.9371 189.5636 574.8541C 189.5866 574.8461 189.6086 574.8391 189.6296 574.8321C 189.6946 574.813 189.7606 574.8011 189.8246 574.7841C 189.9836 574.7421 190.1436 574.701 190.3076 574.6651C 190.3526 574.6571 190.3916 574.6441 190.4346 574.6351C 190.4966 574.6211 190.5636 574.6141 190.6256 574.6011C 190.7646 574.5751 190.8996 574.55 191.0376 574.5301C 191.0946 574.5211 191.1456 574.5091 191.2016 574.5001C 191.2606 574.4921 191.3216 574.4891 191.3796 574.4811C 191.5106 574.4651 191.6396 574.4501 191.7726 574.438C 191.8306 574.4321 191.8916 574.4221 191.9516 574.4171C 192.0086 574.4131 192.0656 574.412 192.1236 574.4081C 192.2526 574.399 192.3856 574.3931 192.5186 574.3871C 192.5826 574.3851 192.6476 574.3781 192.7136 574.3761C 192.7646 574.3751 192.8176 574.3781 192.8696 574.3771C 193.0126 574.3751 193.1536 574.3761 193.2976 574.3791C 193.3656 574.3811 193.4366 574.3781 193.5026 574.3811C 193.5436 574.3821 193.5846 574.3871 193.6236 574.3881C 193.8036 574.3961 193.9776 574.4081 194.1536 574.4231C 194.2236 574.4301 194.2936 574.4301 194.3606 574.438C 194.3836 574.4391 194.4036 574.4441 194.4246 574.4461C 194.7216 574.4771 195.0146 574.5181 195.3016 574.5691C 195.3176 574.5711 195.3326 574.5711 195.3446 574.5741C 195.4326 574.5901 195.5146 574.6111 195.5986 574.6281C 195.7406 574.6571 195.8816 574.6851 196.0206 574.7181C 196.1256 574.7441 196.2256 574.7731 196.3286 574.8021C 196.4616 574.8381 196.5946 574.8741 196.7236 574.9141C 196.7506 574.9241 196.7806 574.9301 196.8076 574.938C 196.8566 574.9541 196.8976 574.9751 196.9446 574.9911C 197.1516 575.0611 197.3546 575.136 197.5496 575.2191C 197.6256 575.2511 197.6996 575.2821 197.7746 575.3161C 198.0266 575.4291 198.2706 575.5491 198.5006 575.6831C 198.5316 575.701 198.5636 575.7191 198.5946 575.7401C 198.6666 575.7811 198.7276 575.8281 198.7956 575.873C 198.8896 575.9331 198.9856 575.9931 199.0746 576.0571C 199.1496 576.1121 199.2156 576.1691 199.2856 576.2251C 199.3676 576.2911 199.4516 576.3571 199.5266 576.4241C 199.5416 576.4371 199.5576 576.4491 199.5736 576.4631C 199.6726 576.5551 199.7646 576.6481 199.8506 576.7421C 199.8696 576.7631 199.8856 576.7851 199.9056 576.8061C 199.9556 576.8631 200.0066 576.9201 200.0516 576.9771C 200.0716 577.0041 200.0846 577.0301 200.1026 577.0541C 200.1706 577.1451 200.2336 577.2371 200.2876 577.3281C 200.3116 577.3651 200.3426 577.4031 200.3646 577.4401C 200.3756 577.4591 200.3816 577.4781 200.3916 577.4971C 200.4366 577.5791 200.4716 577.6611 200.5046 577.7421C 200.5266 577.7881 200.5516 577.8321 200.5696 577.8801C 200.5746 577.8941 200.5766 577.9101 200.5826 577.925C 200.6106 578.0041 200.6296 578.0831 200.6516 578.162C 200.6626 578.2131 200.6846 578.2621 200.6946 578.3141C 200.6986 578.3271 200.6966 578.3411 200.6996 578.3541C 200.7136 578.438 200.7196 578.5231 200.7276 578.6071C 200.7316 578.6571 200.7426 578.7061 200.7446 578.7571L200.7446 578.7571L200.7446 578.8241L200.7446 578.8241L200.7806 579.5221C 200.7806 579.4501 200.7666 579.3771 200.7606 579.3041" stroke="none" fill="#838383" fill-rule="winding" /><path transform="matrix(1 0 0 -1 0 677)" d="M198.4989 582.7084C 201.5259 580.9604 201.5419 578.1274 198.5339 576.3804C 195.5279 574.6324 190.6379 574.6324 187.6099 576.3804C 184.5829 578.1274 184.5689 580.9604 187.5749 582.7084C 190.5809 584.4554 195.4719 584.4554 198.4989 582.7084" stroke="none" fill="#C8C8C8" fill-rule="winding" /><path transform="matrix(1 0 0 -1 0 677)" d="M187.1278 562.6005L187.1298 562.1465L187.1298 562.1465L169.2448 572.4635L169.2448 572.4635L169.2448 572.9325z" stroke="none" fill="#C8C8C8" fill-rule="winding" /><path transform="matrix(1 0 0 -1 0 677)" d="M187.1278 562.6005L196.5638 569.3465L196.5638 569.3465L196.5638 567.6105L196.5638 567.6105L187.1278 562.1325z" stroke="none" fill="#838383" fill-rule="winding" /><path transform="matrix(1 0 0 -1 0 677)" d="M169.245 572.9324L178.722 579.6664L178.722 579.6664L196.589 569.3505L196.589 569.3505L187.128 562.6005z" stroke="none" fill="#EEEEEE" fill-rule="winding" /><path transform="matrix(1 0 0 -1 0 677)" d="M186.7001 564.8661L186.7021 564.5051L186.7021 564.5051L172.5111 572.6911L172.5111 572.6911L172.5111 573.0631z" stroke="none" fill="#989898" fill-rule="winding" /><path transform="matrix(1 0 0 -1 0 677)" d="M186.7001 564.8661L193.8761 570.0511L193.8761 570.0511L193.8761 569.6231L193.8761 569.6231L186.7001 564.4931z" stroke="none" fill="#B0B0B0" fill-rule="winding" /><path transform="matrix(1 0 0 -1 0 677)" d="M172.5106 573.0634L179.8466 578.1504L179.8466 578.1504L193.8756 570.0504L193.8756 570.0504L186.6996 564.8664z" stroke="none" fill="#E1E1E1" fill-rule="winding" /><path transform="matrix(1 0 0 -1 0 677)" d="M202.1473 594.4061L202.1473 573.1211L202.1473 573.1211L179.3133 586.2921L179.3133 586.2921L179.3133 607.5771z" stroke="none" fill="#E1E1E1" fill-rule="winding" /><path transform="matrix(1 0 0 -1 0 677)" d="M200.8348 593.9398L200.8348 575.1048L200.8348 575.1048L180.6278 586.7588L180.6278 586.7588L180.6278 605.5948z" stroke="none" fill="#595959" fill-rule="winding" /><path transform="matrix(1 0 0 -1 0 677)" d="M202.1434 594.3885L203.3974 595.0705L203.3974 595.0705L203.3974 573.7845L203.3974 573.7845L202.1434 573.1025z" stroke="none" fill="#989898" fill-rule="winding" /><path transform="matrix(1 0 0 -1 0 677)" d="M179.3407 607.5638L180.6177 608.2458L180.6177 608.2458L203.4307 595.0748L203.4307 595.0748L202.1747 594.3928z" stroke="none" fill="#B0B0B0" fill-rule="winding" /><path transform="matrix(1 0 0 -1 0 677)" d="M179.3133 607.5776L179.3133 597.8176L179.3133 597.8176L171.1923 593.1576L171.1923 593.1576L171.1923 580.7206L171.1923 580.7206L176.1723 577.8546L176.1723 577.8546L169.2453 572.9326L169.2453 572.9326L169.2453 572.4636L169.2453 572.4636L187.1273 562.1496L187.1273 562.1496L187.1273 562.1326L187.1273 562.1326L196.5633 567.6106L196.5633 567.6106L196.5633 569.3316L196.5633 569.3316L196.5883 569.3506L196.5883 569.3506L179.8133 579.0356L179.8133 579.0356L185.1943 582.1406L185.1943 582.1406L185.1943 582.8996L185.1943 582.8996L186.6553 582.0576C 185.7723 581.3046 185.3293 580.4306 185.3313 579.5546L185.3313 579.5546L185.3313 579.5656L185.3313 579.5656L185.2973 578.8696C 185.2933 577.7166 186.0553 576.5636 187.5773 575.6836C 187.7583 575.5776 187.9503 575.4806 188.1433 575.3876C 188.2093 575.3556 188.2783 575.3276 188.3483 575.2986C 188.4613 575.2476 188.5753 575.1956 188.6923 575.1486C 188.7063 575.1436 188.7193 575.1406 188.7333 575.1356C 189.0013 575.0306 189.2803 574.9376 189.5633 574.8536C 189.5863 574.8466 189.6083 574.8386 189.6293 574.8316C 189.6943 574.8136 189.7603 574.8016 189.8253 574.7845C 189.9833 574.7416 190.1433 574.7016 190.3073 574.6656C 190.3523 574.6576 190.3913 574.6436 190.4343 574.6346C 190.4973 574.6216 190.5633 574.6136 190.6263 574.6016C 190.7643 574.5756 190.8993 574.5506 191.0383 574.5296C 191.0943 574.5206 191.1453 574.5096 191.2023 574.5005C 191.2603 574.4926 191.3213 574.4896 191.3793 574.4816C 191.5103 574.4656 191.6393 574.4506 191.7723 574.4376C 191.8313 574.4316 191.8913 574.4226 191.9523 574.4166C 192.0083 574.4126 192.0653 574.4116 192.1243 574.4086C 192.2523 574.3986 192.3853 574.3926 192.5183 574.3876C 192.5833 574.3846 192.6473 574.3786 192.7133 574.3766C 192.7643 574.3746 192.8173 574.3786 192.8703 574.3766C 193.0123 574.3746 193.1533 574.3766 193.2973 574.3796C 193.3663 574.3806 193.4363 574.3786 193.5023 574.3806C 193.5433 574.3826 193.5843 574.3876 193.6243 574.3885C 193.8033 574.3956 193.9773 574.4086 194.1533 574.4236C 194.2233 574.4306 194.2933 574.4306 194.3603 574.4376C 194.3833 574.4396 194.4033 574.4436 194.4243 574.4466C 194.7213 574.4776 195.0143 574.5176 195.3013 574.5686C 195.3173 574.5706 195.3333 574.5716 195.3443 574.5746C 195.4323 574.5906 195.5143 574.6116 195.5983 574.6286C 195.7413 574.6576 195.8813 574.6855 196.0203 574.7186C 196.1253 574.7446 196.2253 574.7736 196.3293 574.8026C 196.4613 574.8386 196.5943 574.8736 196.7233 574.9146C 196.7503 574.9236 196.7803 574.9306 196.8073 574.9386C 196.8563 574.9536 196.8973 574.9756 196.9443 574.9916C 197.1513 575.0605 197.3543 575.1366 197.5493 575.2196C 197.6253 575.2505 197.7003 575.2826 197.7743 575.3156C 197.8793 575.3625 197.9753 575.4186 198.0773 575.4686L198.0773 575.4686L202.1433 573.1236L202.1433 573.1236L202.1433 573.1026L202.1433 573.1026L203.3973 573.7845L203.3973 573.7845L203.3973 595.0566L203.3973 595.0566L203.4303 595.0756L203.4303 595.0756L180.6183 608.2456L180.6183 608.2456L179.3403 607.5636" stroke="#181818" stroke-width="1" stroke-linecap="round" fill="none" /><path transform="matrix(1 0 0 -1 0 677)" d="M344.9149 590.5511L344.9149 561.3181L344.9149 561.3181L333.4309 568.3771L333.4309 568.3771L333.4309 597.6151z" stroke="none" fill="#B0B0B0" fill-rule="winding" /><path transform="matrix(1 0 0 -1 0 677)" d="M342.786 589.6332L342.786 586.1432L342.786 586.1432L334.597 591.1802L334.597 591.1802L334.597 594.6722z" stroke="none" fill="#464646" fill-rule="winding" /><path transform="matrix(1 0 0 -1 0 677)" d="M342.786 577.8636L342.786 574.3776L342.786 574.3776L334.597 579.4146L334.597 579.4146L334.597 582.9026z" stroke="none" fill="#464646" fill-rule="winding" /><path transform="matrix(1 0 0 -1 0 677)" d="M342.786 582.2504L342.786 581.2424L342.786 581.2424L334.597 586.2773L334.597 586.2773L334.597 587.2914z" stroke="none" fill="#E1E1E1" fill-rule="winding" /><path transform="matrix(1 0 0 -1 0 677)" d="M342.786 572.9086L342.786 569.4226L342.786 569.4226L334.597 574.4576L334.597 574.4576L334.597 577.9476z" stroke="none" fill="#464646" fill-rule="winding" /><path transform="matrix(1 0 0 -1 0 677)" d="M342.786 567.9554L342.786 564.4664L342.786 564.4664L334.597 569.5044L334.597 569.5044L334.597 572.9924z" stroke="none" fill="#464646" fill-rule="winding" /><path transform="matrix(1 0 0 -1 0 677)" d="M344.909 590.5336L363.112 602.0166L363.112 602.0166L363.112 572.7796L363.112 572.7796L344.909 561.2986z" stroke="none" fill="#838383" fill-rule="winding" /><path transform="matrix(1 0 0 -1 0 677)" d="M333.4559 597.598L351.6809 609.08L351.6809 609.08L363.1419 602.02L363.1419 602.02L344.9359 590.537z" stroke="none" fill="#989898" fill-rule="winding" /><path transform="matrix(1 0 0 -1 0 677)" d="M334.8719 590.7015C 335.0519 590.5955 335.1899 590.3365 335.1899 590.1196C 335.1899 589.9085 335.0499 589.8165 334.8719 589.9285C 334.6999 590.0375 334.5539 590.2975 334.5589 590.5106C 334.5589 590.7266 334.6999 590.8085 334.8719 590.7015" stroke="none" fill="#6C6C6C" fill-rule="winding" /><path transform="matrix(1 0 0 -1 0 677)" d="M335.6415 590.2269C 335.8195 590.1199 335.9575 589.8579 335.9575 589.6409C 335.9575 589.4299 335.8115 589.3419 335.6395 589.45C 335.4635 589.5549 335.3235 589.817 335.3235 590.0319C 335.3235 590.2479 335.4655 590.3359 335.6415 590.2269" stroke="none" fill="#525252" fill-rule="winding" /><path transform="matrix(1 0 0 -1 0 677)" d="M336.409 589.7621C 336.581 589.6551 336.725 589.3951 336.725 589.1801C 336.725 588.9631 336.581 588.8771 336.407 588.9851C 336.229 589.0921 336.091 589.3581 336.091 589.5731C 336.091 589.7831 336.231 589.8701 336.409 589.7621" stroke="none" fill="#6C6C6C" fill-rule="winding" /><path transform="matrix(1 0 0 -1 0 677)" d="M337.1747 589.2894C 337.3507 589.1824 337.4887 588.9224 337.4887 588.7054C 337.4877 588.4944 337.3467 588.4064 337.1687 588.5164C 336.9967 588.6214 336.8547 588.8854 336.8547 589.0984C 336.8547 589.3124 336.9987 589.4005 337.1747 589.2894" stroke="none" fill="#525252" fill-rule="winding" /><path transform="matrix(1 0 0 -1 0 677)" d="M337.9501 588.8148C 338.1281 588.7058 338.2681 588.4478 338.2661 588.2308C 338.2661 588.0158 338.1261 587.9278 337.9481 588.0398C 337.7761 588.1468 337.6361 588.4068 337.6361 588.6218C 337.6361 588.8348 337.7761 588.9218 337.9501 588.8148" stroke="none" fill="#525252" fill-rule="winding" /><path transform="matrix(1 0 0 -1 0 677)" d="M338.7176 588.3362C 338.8956 588.2312 339.0336 587.9692 339.0336 587.7542C 339.0336 587.5392 338.8936 587.4532 338.7156 587.5612C 338.5416 587.6662 338.3996 587.9282 338.3996 588.1452C 338.3996 588.3572 338.5416 588.4472 338.7176 588.3362" stroke="none" fill="#6C6C6C" fill-rule="winding" /><path transform="matrix(1 0 0 -1 0 677)" d="M339.4852 587.8754C 339.6612 587.7664 339.7992 587.5084 339.7992 587.2914C 339.7992 587.0724 339.6572 586.9883 339.4852 587.0984C 339.3072 587.2054 339.1672 587.4673 339.1672 587.6824C 339.1672 587.8954 339.3092 587.9824 339.4852 587.8754" stroke="none" fill="#6C6C6C" fill-rule="winding" /><path transform="matrix(1 0 0 -1 0 677)" d="M340.2528 587.4008C 340.4248 587.2958 340.5648 587.0358 340.5648 586.8188C 340.5648 586.6018 340.4248 586.5198 340.2468 586.6278C 340.0748 586.7328 339.9308 586.9948 339.9348 587.2098C 339.9348 587.4258 340.0768 587.5138 340.2528 587.4008" stroke="none" fill="#6C6C6C" fill-rule="winding" /><path transform="matrix(1 0 0 -1 0 677)" d="M334.8719 589.5668C 335.0519 589.4619 335.1899 589.1978 335.1899 588.9828C 335.1899 588.7698 335.0499 588.6859 334.8719 588.7899C 334.6999 588.8988 334.5539 589.1588 334.5589 589.3759C 334.5589 589.5908 334.6999 589.6748 334.8719 589.5668" stroke="none" fill="#525252" fill-rule="winding" /><path transform="matrix(1 0 0 -1 0 677)" d="M335.6415 589.0922C 335.8195 588.9832 335.9575 588.7231 335.9575 588.5062C 335.9575 588.2932 335.8115 588.2032 335.6395 588.3132C 335.4635 588.4222 335.3235 588.6862 335.3235 588.8992C 335.3235 589.1132 335.4655 589.1971 335.6415 589.0922" stroke="none" fill="#525252" fill-rule="winding" /><path transform="matrix(1 0 0 -1 0 677)" d="M336.409 588.6273C 336.581 588.5233 336.725 588.2543 336.725 588.0453C 336.725 587.8283 336.581 587.7423 336.407 587.8483C 336.229 587.9573 336.091 588.2193 336.091 588.4363C 336.091 588.6483 336.231 588.7343 336.409 588.6273" stroke="none" fill="#6C6C6C" fill-rule="winding" /><path transform="matrix(1 0 0 -1 0 677)" d="M337.1747 588.1547C 337.3507 588.0497 337.4887 587.7877 337.4887 587.5707C 337.4877 587.3597 337.3467 587.2717 337.1687 587.3777C 336.9967 587.4886 336.8547 587.7507 336.8547 587.9617C 336.8547 588.1777 336.9987 588.2657 337.1747 588.1547" stroke="none" fill="#525252" fill-rule="winding" /><path transform="matrix(1 0 0 -1 0 677)" d="M337.9501 587.6801C 338.1281 587.5711 338.2681 587.3111 338.2661 587.0981C 338.2661 586.8811 338.1261 586.7931 337.9481 586.9011C 337.7761 587.0081 337.6361 587.2721 337.6361 587.4851C 337.6361 587.6991 337.7761 587.7871 337.9501 587.6801" stroke="none" fill="#6C6C6C" fill-rule="winding" /><path transform="matrix(1 0 0 -1 0 677)" d="M338.7176 587.2054C 338.8956 587.0984 339.0336 586.8304 339.0336 586.6194C 339.0336 586.4024 338.8936 586.3184 338.7156 586.4244C 338.5416 586.5314 338.3996 586.7934 338.3996 587.0084C 338.3996 587.2234 338.5416 587.3104 338.7176 587.2054" stroke="none" fill="#525252" fill-rule="winding" /><path transform="matrix(1 0 0 -1 0 677)" d="M339.4852 586.7405C 339.6612 586.6275 339.7992 586.3695 339.7992 586.1545C 339.7992 585.9375 339.6572 585.8515 339.4852 585.9635C 339.3072 586.0665 339.1672 586.3305 339.1672 586.5455C 339.1672 586.7605 339.3092 586.8475 339.4852 586.7405" stroke="none" fill="#6C6C6C" fill-rule="winding" /><path transform="matrix(1 0 0 -1 0 677)" d="M340.2528 586.2698C 340.4248 586.1588 340.5648 585.9008 340.5648 585.6838C 340.5648 585.4668 340.4248 585.3848 340.2468 585.4888C 340.0748 585.5958 339.9308 585.8638 339.9348 586.0728C 339.9348 586.2908 340.0768 586.3738 340.2528 586.2698" stroke="none" fill="#525252" fill-rule="winding" /><path transform="matrix(1 0 0 -1 0 677)" d="M340.8446 581.3871C 341.0226 581.2801 341.1646 581.0201 341.1646 580.8011C 341.1646 580.5901 341.0206 580.5021 340.8446 580.6081C 340.6666 580.7191 340.5286 580.9831 340.5286 581.1941C 340.5286 581.4081 340.6686 581.4951 340.8446 581.3871" stroke="none" fill="#6C6C6C" fill-rule="winding" /><path transform="matrix(1 0 0 -1 0 677)" d="M341.6141 580.9242C 341.7861 580.8152 341.9261 580.5552 341.9261 580.3382C 341.9261 580.1232 341.7861 580.0392 341.6141 580.1452C 341.4341 580.2542 341.2961 580.5122 341.2961 580.7292C 341.2961 580.9432 341.4361 581.0272 341.6141 580.9242" stroke="none" fill="#6C6C6C" fill-rule="winding" /><path transform="matrix(1 0 0 -1 0 677)" d="M342.3778 580.4515C 342.5538 580.3445 342.6938 580.0845 342.6938 579.8676C 342.6938 579.6566 342.5538 579.5645 342.3758 579.6746C 342.1998 579.7816 342.0578 580.0475 342.0618 580.2585C 342.0618 580.4725 342.2038 580.5626 342.3778 580.4515" stroke="none" fill="#525252" fill-rule="winding" /><path transform="matrix(1 0 0 -1 0 677)" d="M340.8446 580.2504C 341.0226 580.1454 341.1646 579.8834 341.1646 579.6644C 341.1646 579.4514 341.0206 579.3654 340.8446 579.4774C 340.6666 579.5804 340.5286 579.8464 340.5286 580.0594C 340.5286 580.2714 340.6686 580.3614 340.8446 580.2504" stroke="none" fill="#525252" fill-rule="winding" /><path transform="matrix(1 0 0 -1 0 677)" d="M341.6141 579.7875C 341.7861 579.6765 341.9261 579.4145 341.9261 579.2055C 341.9261 578.9885 341.7861 578.9005 341.6141 579.0125C 341.4341 579.1175 341.2961 579.3815 341.2961 579.5945C 341.2961 579.8105 341.4361 579.8945 341.6141 579.7875" stroke="none" fill="#525252" fill-rule="winding" /><path transform="matrix(1 0 0 -1 0 677)" d="M342.3778 579.3148C 342.5538 579.2108 342.6938 578.9498 342.6938 578.7328C 342.6938 578.5178 342.5538 578.4298 342.3758 578.5418C 342.1998 578.6468 342.0578 578.9088 342.0618 579.1238C 342.0618 579.3358 342.2038 579.4238 342.3778 579.3148" stroke="none" fill="#6C6C6C" fill-rule="winding" /><path transform="matrix(1 0 0 -1 0 677)" d="M363.1415 602.0198L351.6785 609.0807L351.6785 609.0807L333.4555 597.5978L333.4555 597.5978L333.4305 597.6158L333.4305 597.6158L333.4305 568.3768L333.4305 568.3768L344.9095 561.3177L344.9095 561.3177L344.9095 561.2978L344.9095 561.2978L363.1105 572.7798L363.1105 572.7798L363.1105 601.9998L363.1105 601.9998L363.1415 602.0198z" stroke="#181818" stroke-width="1" stroke-linecap="round" fill="none" /></g><path transform="matrix(1 0 0 -1 0 677)" d="M207.9891 586.1429L326.3291 586.1429" stroke="#181818" stroke-width="1" stroke-linecap="round" fill="none" /><path transform="matrix(1 0 0 -1 0 677)" d="M325.454 583.1512L330.635 586.1432L330.635 586.1432L325.454 589.1352z" stroke="none" fill="#181818" fill-rule="winding" /><path transform="matrix(1 0 0 -1 0 677)" d="M330.6346 576.1429L212.2946 576.1429" stroke="#181818" stroke-width="1" stroke-linecap="round" fill="none" /><path transform="matrix(1 0 0 -1 0 677)" d="M213.1703 579.1346L207.9893 576.1426L207.9893 576.1426L213.1703 573.1506z" stroke="none" fill="#181818" fill-rule="winding" /><path transform="matrix(1 0 0 -1 0 677)" d="M344.9149 520.782L344.9149 491.549L344.9149 491.549L333.4309 498.608L333.4309 498.608L333.4309 527.846z" stroke="none" fill="#B0B0B0" fill-rule="winding" /><path transform="matrix(1 0 0 -1 0 677)" d="M342.786 519.8641L342.786 516.3741L342.786 516.3741L334.597 521.4111L334.597 521.4111L334.597 524.9031z" stroke="none" fill="#464646" fill-rule="winding" /><path transform="matrix(1 0 0 -1 0 677)" d="M342.786 508.0945L342.786 504.6085L342.786 504.6085L334.597 509.6455L334.597 509.6455L334.597 513.1335z" stroke="none" fill="#464646" fill-rule="winding" /><path transform="matrix(1 0 0 -1 0 677)" d="M342.786 512.4813L342.786 511.4733L342.786 511.4733L334.597 516.5082L334.597 516.5082L334.597 517.5223z" stroke="none" fill="#E1E1E1" fill-rule="winding" /><path transform="matrix(1 0 0 -1 0 677)" d="M342.786 503.139L342.786 499.654L342.786 499.654L334.597 504.688L334.597 504.688L334.597 508.179z" stroke="none" fill="#464646" fill-rule="winding" /><path transform="matrix(1 0 0 -1 0 677)" d="M342.786 498.186L342.786 494.698L342.786 494.698L334.597 499.736L334.597 499.736L334.597 503.223z" stroke="none" fill="#464646" fill-rule="winding" /><path transform="matrix(1 0 0 -1 0 677)" d="M344.909 520.7645L363.112 532.2465L363.112 532.2465L363.112 503.0105L363.112 503.0105L344.909 491.5295z" stroke="none" fill="#838383" fill-rule="winding" /><path transform="matrix(1 0 0 -1 0 677)" d="M333.4559 527.829L351.6809 539.311L351.6809 539.311L363.1419 532.251L363.1419 532.251L344.9359 520.768z" stroke="none" fill="#989898" fill-rule="winding" /><g clip-path="url(#12)"><path transform="matrix(1 0 0 -1 0 677)" d="M334.8719 520.9324C 335.0519 520.8275 335.1899 520.5674 335.1899 520.3505C 335.1899 520.1394 335.0499 520.0474 334.8719 520.1594C 334.6999 520.2684 334.5539 520.5284 334.5589 520.7415C 334.5589 520.9575 334.6999 521.0394 334.8719 520.9324" stroke="none" fill="#6C6C6C" fill-rule="winding" /><path transform="matrix(1 0 0 -1 0 677)" d="M335.6415 520.4579C 335.8195 520.3509 335.9575 520.0889 335.9575 519.8719C 335.9575 519.6609 335.8115 519.5729 335.6395 519.6809C 335.4635 519.7859 335.3235 520.0479 335.3235 520.2629C 335.3235 520.4789 335.4655 520.5669 335.6415 520.4579" stroke="none" fill="#525252" fill-rule="winding" /><path transform="matrix(1 0 0 -1 0 677)" d="M336.409 519.993C 336.581 519.886 336.725 519.626 336.725 519.411C 336.725 519.194 336.581 519.108 336.407 519.216C 336.229 519.323 336.091 519.589 336.091 519.804C 336.091 520.014 336.231 520.1 336.409 519.993" stroke="none" fill="#6C6C6C" fill-rule="winding" /><path transform="matrix(1 0 0 -1 0 677)" d="M337.1747 519.5204C 337.3507 519.4134 337.4887 519.1534 337.4887 518.9364C 337.4877 518.7254 337.3467 518.6374 337.1687 518.7474C 336.9967 518.8524 336.8547 519.1164 336.8547 519.3294C 336.8547 519.5434 336.9987 519.6314 337.1747 519.5204" stroke="none" fill="#525252" fill-rule="winding" /><path transform="matrix(1 0 0 -1 0 677)" d="M337.9501 519.0458C 338.1281 518.9368 338.2681 518.6788 338.2661 518.4619C 338.2661 518.2468 338.1261 518.1588 337.9481 518.2708C 337.7761 518.3778 337.6361 518.6378 337.6361 518.8528C 337.6361 519.0659 337.7761 519.1528 337.9501 519.0458" stroke="none" fill="#525252" fill-rule="winding" /><path transform="matrix(1 0 0 -1 0 677)" d="M338.7176 518.5673C 338.8956 518.4623 339.0336 518.2003 339.0336 517.9854C 339.0336 517.7703 338.8936 517.6843 338.7156 517.7923C 338.5416 517.8973 338.3996 518.1593 338.3996 518.3763C 338.3996 518.5883 338.5416 518.6783 338.7176 518.5673" stroke="none" fill="#6C6C6C" fill-rule="winding" /><path transform="matrix(1 0 0 -1 0 677)" d="M339.4852 518.1063C 339.6612 517.9973 339.7992 517.7393 339.7992 517.5223C 339.7992 517.3033 339.6572 517.2192 339.4852 517.3293C 339.3072 517.4363 339.1672 517.6982 339.1672 517.9133C 339.1672 518.1263 339.3092 518.2133 339.4852 518.1063" stroke="none" fill="#6C6C6C" fill-rule="winding" /><path transform="matrix(1 0 0 -1 0 677)" d="M340.2528 517.6318C 340.4248 517.5268 340.5648 517.2668 340.5648 517.0498C 340.5648 516.8328 340.4248 516.7508 340.2468 516.8588C 340.0748 516.9637 339.9308 517.2258 339.9348 517.4408C 339.9348 517.6568 340.0768 517.7448 340.2528 517.6318" stroke="none" fill="#6C6C6C" fill-rule="winding" /><path transform="matrix(1 0 0 -1 0 677)" d="M334.8719 519.7977C 335.0519 519.6927 335.1899 519.4287 335.1899 519.2137C 335.1899 519.0007 335.0499 518.9167 334.8719 519.0208C 334.6999 519.1297 334.5539 519.3897 334.5589 519.6068C 334.5589 519.8217 334.6999 519.9057 334.8719 519.7977" stroke="none" fill="#525252" fill-rule="winding" /><path transform="matrix(1 0 0 -1 0 677)" d="M335.6415 519.3232C 335.8195 519.2142 335.9575 518.9542 335.9575 518.7372C 335.9575 518.5242 335.8115 518.4342 335.6395 518.5442C 335.4635 518.6532 335.3235 518.9172 335.3235 519.1302C 335.3235 519.3442 335.4655 519.4282 335.6415 519.3232" stroke="none" fill="#525252" fill-rule="winding" /><path transform="matrix(1 0 0 -1 0 677)" d="M336.409 518.8583C 336.581 518.7543 336.725 518.4854 336.725 518.2764C 336.725 518.0593 336.581 517.9733 336.407 518.0793C 336.229 518.1884 336.091 518.4503 336.091 518.6674C 336.091 518.8793 336.231 518.9653 336.409 518.8583" stroke="none" fill="#6C6C6C" fill-rule="winding" /><path transform="matrix(1 0 0 -1 0 677)" d="M337.1747 518.3857C 337.3507 518.2807 337.4887 518.0187 337.4887 517.8017C 337.4877 517.5907 337.3467 517.5027 337.1687 517.6087C 336.9967 517.7197 336.8547 517.9817 336.8547 518.1927C 336.8547 518.4087 336.9987 518.4967 337.1747 518.3857" stroke="none" fill="#525252" fill-rule="winding" /><path transform="matrix(1 0 0 -1 0 677)" d="M337.9501 517.9111C 338.1281 517.8021 338.2681 517.5421 338.2661 517.3292C 338.2661 517.1121 338.1261 517.0241 337.9481 517.1321C 337.7761 517.2391 337.6361 517.5031 337.6361 517.7161C 337.6361 517.9312 337.7761 518.0181 337.9501 517.9111" stroke="none" fill="#6C6C6C" fill-rule="winding" /><path transform="matrix(1 0 0 -1 0 677)" d="M338.7176 517.4363C 338.8956 517.3293 339.0336 517.0613 339.0336 516.8503C 339.0336 516.6333 338.8936 516.5493 338.7156 516.6553C 338.5416 516.7623 338.3996 517.0243 338.3996 517.2393C 338.3996 517.4543 338.5416 517.5413 338.7176 517.4363" stroke="none" fill="#525252" fill-rule="winding" /><path transform="matrix(1 0 0 -1 0 677)" d="M339.4852 516.9716C 339.6612 516.8586 339.7992 516.6006 339.7992 516.3856C 339.7992 516.1686 339.6572 516.0826 339.4852 516.1946C 339.3072 516.2976 339.1672 516.5616 339.1672 516.7766C 339.1672 516.9916 339.3092 517.0786 339.4852 516.9716" stroke="none" fill="#6C6C6C" fill-rule="winding" /><path transform="matrix(1 0 0 -1 0 677)" d="M340.2528 516.5009C 340.4248 516.3899 340.5648 516.1319 340.5648 515.9149C 340.5648 515.6979 340.4248 515.6159 340.2468 515.7199C 340.0748 515.8269 339.9308 516.0949 339.9348 516.3039C 339.9348 516.5219 340.0768 516.6049 340.2528 516.5009" stroke="none" fill="#525252" fill-rule="winding" /><path transform="matrix(1 0 0 -1 0 677)" d="M340.8446 511.618C 341.0226 511.511 341.1646 511.251 341.1646 511.032C 341.1646 510.821 341.0206 510.733 340.8446 510.839C 340.6666 510.95 340.5286 511.214 340.5286 511.425C 340.5286 511.639 340.6686 511.725 340.8446 511.618" stroke="none" fill="#6C6C6C" fill-rule="winding" /><path transform="matrix(1 0 0 -1 0 677)" d="M341.6141 511.1552C 341.7861 511.0462 341.9261 510.7862 341.9261 510.5692C 341.9261 510.3542 341.7861 510.2702 341.6141 510.3762C 341.4341 510.4852 341.2961 510.7432 341.2961 510.9602C 341.2961 511.1742 341.4361 511.2582 341.6141 511.1552" stroke="none" fill="#6C6C6C" fill-rule="winding" /><path transform="matrix(1 0 0 -1 0 677)" d="M342.3778 510.6825C 342.5538 510.5755 342.6938 510.3155 342.6938 510.0985C 342.6938 509.8875 342.5538 509.7955 342.3758 509.9055C 342.1998 510.0125 342.0578 510.2785 342.0618 510.4895C 342.0618 510.7035 342.2038 510.7935 342.3778 510.6825" stroke="none" fill="#525252" fill-rule="winding" /><path transform="matrix(1 0 0 -1 0 677)" d="M340.8446 510.4814C 341.0226 510.3764 341.1646 510.1144 341.1646 509.8954C 341.1646 509.6824 341.0206 509.5964 340.8446 509.7084C 340.6666 509.8114 340.5286 510.0774 340.5286 510.2904C 340.5286 510.5024 340.6686 510.5924 340.8446 510.4814" stroke="none" fill="#525252" fill-rule="winding" /><path transform="matrix(1 0 0 -1 0 677)" d="M341.6141 510.0185C 341.7861 509.9075 341.9261 509.6455 341.9261 509.4365C 341.9261 509.2195 341.7861 509.1315 341.6141 509.2435C 341.4341 509.3485 341.2961 509.6125 341.2961 509.8255C 341.2961 510.0415 341.4361 510.1255 341.6141 510.0185" stroke="none" fill="#525252" fill-rule="winding" /><path transform="matrix(1 0 0 -1 0 677)" d="M342.3778 509.5457C 342.5538 509.4417 342.6938 509.1807 342.6938 508.9637C 342.6938 508.7487 342.5538 508.6607 342.3758 508.7727C 342.1998 508.8777 342.0578 509.1397 342.0618 509.3547C 342.0618 509.5667 342.2038 509.6547 342.3778 509.5457" stroke="none" fill="#6C6C6C" fill-rule="winding" /><path transform="matrix(1 0 0 -1 0 677)" d="M363.1415 532.2509L351.6785 539.3119L351.6785 539.3119L333.4555 527.8289L333.4555 527.8289L333.4305 527.8469L333.4305 527.8469L333.4305 498.6079L333.4305 498.6079L344.9095 491.5489L344.9095 491.5489L344.9095 491.5289L344.9095 491.5289L363.1105 503.0109L363.1105 503.0109L363.1105 532.2309L363.1105 532.2309L363.1415 532.2509z" stroke="#181818" stroke-width="1" stroke-linecap="round" fill="none" /></g><path transform="matrix(1 0 0 -1 0 677)" d="M207.9891 516.3738L326.3291 516.3738" stroke="#181818" stroke-width="1" stroke-linecap="round" fill="none" /><path transform="matrix(1 0 0 -1 0 677)" d="M325.454 513.3821L330.635 516.3741L330.635 516.3741L325.454 519.3661z" stroke="none" fill="#181818" fill-rule="winding" /><path transform="matrix(1 0 0 -1 0 677)" d="M330.6346 506.3738L212.2946 506.3738" stroke="#181818" stroke-width="1" stroke-linecap="round" fill="none" /><path transform="matrix(1 0 0 -1 0 677)" d="M213.1703 509.3655L207.9893 506.3735L207.9893 506.3735L213.1703 503.3815z" stroke="none" fill="#181818" fill-rule="winding" /><path transform="matrix(1 0 0 -1 0 677)" d="M344.9149 450.1497L344.9149 420.9167L344.9149 420.9167L333.4309 427.9757L333.4309 427.9757L333.4309 457.2127z" stroke="none" fill="#B0B0B0" fill-rule="winding" /><path transform="matrix(1 0 0 -1 0 677)" d="M342.786 449.2319L342.786 445.7419L342.786 445.7419L334.597 450.7789L334.597 450.7789L334.597 454.2709z" stroke="none" fill="#464646" fill-rule="winding" /><path transform="matrix(1 0 0 -1 0 677)" d="M342.786 437.4622L342.786 433.9762L342.786 433.9762L334.597 439.0132L334.597 439.0132L334.597 442.5012z" stroke="none" fill="#464646" fill-rule="winding" /><path transform="matrix(1 0 0 -1 0 677)" d="M342.786 441.849L342.786 440.841L342.786 440.841L334.597 445.875L334.597 445.875L334.597 446.89z" stroke="none" fill="#E1E1E1" fill-rule="winding" /><path transform="matrix(1 0 0 -1 0 677)" d="M342.786 432.5071L342.786 429.0211L342.786 429.0211L334.597 434.0561L334.597 434.0561L334.597 437.5461z" stroke="none" fill="#464646" fill-rule="winding" /><path transform="matrix(1 0 0 -1 0 677)" d="M342.786 427.554L342.786 424.065L342.786 424.065L334.597 429.103L334.597 429.103L334.597 432.591z" stroke="none" fill="#464646" fill-rule="winding" /><path transform="matrix(1 0 0 -1 0 677)" d="M344.909 450.1321L363.112 461.6131L363.112 461.6131L363.112 432.3781L363.112 432.3781L344.909 420.8971z" stroke="none" fill="#838383" fill-rule="winding" /><path transform="matrix(1 0 0 -1 0 677)" d="M333.4559 457.1967L351.6809 468.6777L351.6809 468.6777L363.1419 461.6187L363.1419 461.6187L344.9359 450.1347z" stroke="none" fill="#989898" fill-rule="winding" /><g clip-path="url(#13)"><path transform="matrix(1 0 0 -1 0 677)" d="M334.8719 450.3002C 335.0519 450.1952 335.1899 449.9352 335.1899 449.7182C 335.1899 449.5072 335.0499 449.4152 334.8719 449.5272C 334.6999 449.6362 334.5539 449.8962 334.5589 450.1092C 334.5589 450.3242 334.6999 450.4062 334.8719 450.3002" stroke="none" fill="#6C6C6C" fill-rule="winding" /><path transform="matrix(1 0 0 -1 0 677)" d="M335.6415 449.8256C 335.8195 449.7186 335.9575 449.4566 335.9575 449.2396C 335.9575 449.0286 335.8115 448.9406 335.6395 449.0486C 335.4635 449.1536 335.3235 449.4156 335.3235 449.6306C 335.3235 449.8466 335.4655 449.9346 335.6415 449.8256" stroke="none" fill="#525252" fill-rule="winding" /><path transform="matrix(1 0 0 -1 0 677)" d="M336.409 449.3607C 336.581 449.2537 336.725 448.9937 336.725 448.7787C 336.725 448.5617 336.581 448.4757 336.407 448.5837C 336.229 448.6907 336.091 448.9567 336.091 449.1717C 336.091 449.3817 336.231 449.4667 336.409 449.3607" stroke="none" fill="#6C6C6C" fill-rule="winding" /><path transform="matrix(1 0 0 -1 0 677)" d="M337.1747 448.8881C 337.3507 448.7811 337.4887 448.5211 337.4887 448.3041C 337.4877 448.0931 337.3467 448.0051 337.1687 448.1151C 336.9967 448.2201 336.8547 448.4841 336.8547 448.6971C 336.8547 448.9101 336.9987 448.9991 337.1747 448.8881" stroke="none" fill="#525252" fill-rule="winding" /><path transform="matrix(1 0 0 -1 0 677)" d="M337.9501 448.4135C 338.1281 448.3045 338.2681 448.0465 338.2661 447.8295C 338.2661 447.6145 338.1261 447.5265 337.9481 447.6385C 337.7761 447.7455 337.6361 448.0055 337.6361 448.2205C 337.6361 448.4335 337.7761 448.5195 337.9501 448.4135" stroke="none" fill="#525252" fill-rule="winding" /><path transform="matrix(1 0 0 -1 0 677)" d="M338.7176 447.935C 338.8956 447.83 339.0336 447.568 339.0336 447.353C 339.0336 447.138 338.8936 447.052 338.7156 447.16C 338.5416 447.265 338.3996 447.527 338.3996 447.744C 338.3996 447.956 338.5416 448.046 338.7176 447.935" stroke="none" fill="#6C6C6C" fill-rule="winding" /><path transform="matrix(1 0 0 -1 0 677)" d="M339.4852 447.474C 339.6612 447.365 339.7992 447.107 339.7992 446.89C 339.7992 446.671 339.6572 446.587 339.4852 446.697C 339.3072 446.804 339.1672 447.066 339.1672 447.281C 339.1672 447.494 339.3092 447.58 339.4852 447.474" stroke="none" fill="#6C6C6C" fill-rule="winding" /><path transform="matrix(1 0 0 -1 0 677)" d="M340.2528 446.9994C 340.4248 446.8944 340.5648 446.6344 340.5648 446.4174C 340.5648 446.2004 340.4248 446.1184 340.2468 446.2264C 340.0748 446.3314 339.9308 446.5934 339.9348 446.8084C 339.9348 447.0234 340.0768 447.1124 340.2528 446.9994" stroke="none" fill="#6C6C6C" fill-rule="winding" /><path transform="matrix(1 0 0 -1 0 677)" d="M334.8719 449.1653C 335.0519 449.0603 335.1899 448.7963 335.1899 448.5813C 335.1899 448.3683 335.0499 448.2843 334.8719 448.3883C 334.6999 448.4973 334.5539 448.7573 334.5589 448.9743C 334.5589 449.1883 334.6999 449.2723 334.8719 449.1653" stroke="none" fill="#525252" fill-rule="winding" /><path transform="matrix(1 0 0 -1 0 677)" d="M335.6415 448.6908C 335.8195 448.5818 335.9575 448.3218 335.9575 448.1048C 335.9575 447.8918 335.8115 447.8018 335.6395 447.9118C 335.4635 448.0208 335.3235 448.2848 335.3235 448.4978C 335.3235 448.7118 335.4655 448.7948 335.6415 448.6908" stroke="none" fill="#525252" fill-rule="winding" /><path transform="matrix(1 0 0 -1 0 677)" d="M336.409 448.226C 336.581 448.122 336.725 447.853 336.725 447.644C 336.725 447.427 336.581 447.341 336.407 447.447C 336.229 447.556 336.091 447.818 336.091 448.035C 336.091 448.247 336.231 448.332 336.409 448.226" stroke="none" fill="#6C6C6C" fill-rule="winding" /><path transform="matrix(1 0 0 -1 0 677)" d="M337.1747 447.7533C 337.3507 447.6483 337.4887 447.3863 337.4887 447.1693C 337.4877 446.9583 337.3467 446.8703 337.1687 446.9763C 336.9967 447.0873 336.8547 447.3493 336.8547 447.5603C 336.8547 447.7753 336.9987 447.8643 337.1747 447.7533" stroke="none" fill="#525252" fill-rule="winding" /><path transform="matrix(1 0 0 -1 0 677)" d="M337.9501 447.2787C 338.1281 447.1697 338.2681 446.9097 338.2661 446.6967C 338.2661 446.4797 338.1261 446.3917 337.9481 446.4997C 337.7761 446.6067 337.6361 446.8707 337.6361 447.0837C 337.6361 447.2987 337.7761 447.3847 337.9501 447.2787" stroke="none" fill="#6C6C6C" fill-rule="winding" /><path transform="matrix(1 0 0 -1 0 677)" d="M338.7176 446.804C 338.8956 446.697 339.0336 446.429 339.0336 446.218C 339.0336 446.001 338.8936 445.917 338.7156 446.023C 338.5416 446.13 338.3996 446.392 338.3996 446.607C 338.3996 446.822 338.5416 446.909 338.7176 446.804" stroke="none" fill="#525252" fill-rule="winding" /><path transform="matrix(1 0 0 -1 0 677)" d="M339.4852 446.3393C 339.6612 446.2263 339.7992 445.9683 339.7992 445.7533C 339.7992 445.5363 339.6572 445.4503 339.4852 445.5623C 339.3072 445.6653 339.1672 445.9293 339.1672 446.1443C 339.1672 446.3593 339.3092 446.4453 339.4852 446.3393" stroke="none" fill="#6C6C6C" fill-rule="winding" /><path transform="matrix(1 0 0 -1 0 677)" d="M340.2528 445.8686C 340.4248 445.7576 340.5648 445.4996 340.5648 445.2826C 340.5648 445.0656 340.4248 444.9836 340.2468 445.0876C 340.0748 445.1946 339.9308 445.4626 339.9348 445.6716C 339.9348 445.8896 340.0768 445.9726 340.2528 445.8686" stroke="none" fill="#525252" fill-rule="winding" /><path transform="matrix(1 0 0 -1 0 677)" d="M340.8446 440.9857C 341.0226 440.8787 341.1646 440.6187 341.1646 440.3997C 341.1646 440.1887 341.0206 440.1007 340.8446 440.2067C 340.6666 440.3177 340.5286 440.5817 340.5286 440.7927C 340.5286 441.0067 340.6686 441.0917 340.8446 440.9857" stroke="none" fill="#6C6C6C" fill-rule="winding" /><path transform="matrix(1 0 0 -1 0 677)" d="M341.6141 440.5229C 341.7861 440.4139 341.9261 440.1539 341.9261 439.9369C 341.9261 439.7219 341.7861 439.6379 341.6141 439.7439C 341.4341 439.8529 341.2961 440.1109 341.2961 440.3279C 341.2961 440.5419 341.4361 440.6259 341.6141 440.5229" stroke="none" fill="#6C6C6C" fill-rule="winding" /><path transform="matrix(1 0 0 -1 0 677)" d="M342.3778 440.0502C 342.5538 439.9432 342.6938 439.6832 342.6938 439.4662C 342.6938 439.2552 342.5538 439.1632 342.3758 439.2732C 342.1998 439.3802 342.0578 439.6462 342.0618 439.8572C 342.0618 440.0712 342.2038 440.1612 342.3778 440.0502" stroke="none" fill="#525252" fill-rule="winding" /><path transform="matrix(1 0 0 -1 0 677)" d="M340.8446 439.849C 341.0226 439.744 341.1646 439.482 341.1646 439.263C 341.1646 439.05 341.0206 438.964 340.8446 439.076C 340.6666 439.179 340.5286 439.445 340.5286 439.658C 340.5286 439.87 340.6686 439.96 340.8446 439.849" stroke="none" fill="#525252" fill-rule="winding" /><path transform="matrix(1 0 0 -1 0 677)" d="M341.6141 439.3862C 341.7861 439.2752 341.9261 439.0132 341.9261 438.8042C 341.9261 438.5872 341.7861 438.4992 341.6141 438.6112C 341.4341 438.7162 341.2961 438.9802 341.2961 439.1932C 341.2961 439.4092 341.4361 439.4932 341.6141 439.3862" stroke="none" fill="#525252" fill-rule="winding" /><path transform="matrix(1 0 0 -1 0 677)" d="M342.3778 438.9135C 342.5538 438.8095 342.6938 438.5485 342.6938 438.3315C 342.6938 438.1165 342.5538 438.0285 342.3758 438.1405C 342.1998 438.2455 342.0578 438.5075 342.0618 438.7225C 342.0618 438.9345 342.2038 439.0225 342.3778 438.9135" stroke="none" fill="#6C6C6C" fill-rule="winding" /><path transform="matrix(1 0 0 -1 0 677)" d="M363.1415 461.6186L351.6785 468.6796L351.6785 468.6796L333.4555 457.1966L333.4555 457.1966L333.4305 457.2146L333.4305 457.2146L333.4305 427.9746L333.4305 427.9746L344.9095 420.9166L344.9095 420.9166L344.9095 420.8966L344.9095 420.8966L363.1105 432.3786L363.1105 432.3786L363.1105 461.5976L363.1105 461.5976L363.1415 461.6186z" stroke="#181818" stroke-width="1" stroke-linecap="round" fill="none" /></g><path transform="matrix(1 0 0 -1 0 677)" d="M205.9891 432.7415L328.3291 432.7415" stroke="#181818" stroke-width="1" stroke-linecap="round" fill="none" /><path transform="matrix(1 0 0 -1 0 677)" d="M327.454 429.7494L332.635 432.7414L332.635 432.7414L327.454 435.7334z" stroke="none" fill="#181818" fill-rule="winding" /><path transform="matrix(1 0 0 -1 0 677)" d="M338.6346 422.7415L208.2946 422.7415" stroke="#181818" stroke-width="1" stroke-linecap="round" fill="none" /><path transform="matrix(1 0 0 -1 0 677)" d="M209.1703 425.7328L203.9893 422.7418L203.9893 422.7418L209.1703 419.7498z" stroke="none" fill="#181818" fill-rule="winding" /><path transform="matrix(1 0 0 -1 0 677)" d="M338.4305 461.2143L196.5885 461.2143L196.5885 461.2143L196.5885 490.3913" stroke="#181818" stroke-width="1" stroke-linecap="round" fill="none" /><path transform="matrix(1 0 0 -1 0 677)" d="M199.5804 489.516L196.5884 494.697L196.5884 494.697L193.5964 489.516z" stroke="none" fill="#181818" fill-rule="winding" /><path transform="matrix(1 0 0 -1 0 677)" d="M204.4305 499.6528L204.4305 469.4538L204.4305 469.4538L345.2225 469.4538" stroke="#181818" stroke-width="1" stroke-linecap="round" fill="none" /><path transform="matrix(1 0 0 -1 0 677)" d="M344.3475 466.4612L349.5285 469.4532L349.5285 469.4532L344.3475 472.4452z" stroke="none" fill="#181818" fill-rule="winding" /><g clip-path="url(#14)"></g><path transform="matrix(1 0 0 -1 0 677)" d="M79.37 617.803L453.543 617.803L453.543 617.803L453.543 393.866L453.543 393.866L79.37 393.866z" stroke="#181818" stroke-width="0.3" fill="none" /><path transform="matrix(1 0 0 -1 0 677)" d="M255.827 117.371L453.544 117.371L453.544 117.371L453.544 103.702L453.544 103.702L255.827 103.702zM132.02 117.371L255.827 117.371L255.827 117.371L255.827 103.702L255.827 103.702L132.02 103.702zM79.37 117.371L132.02 117.371L132.02 117.371L132.02 103.702L132.02 103.702L79.37 103.702z" stroke="none" fill="#E1E1E1" fill-rule="winding" /><path transform="matrix(1 0 0 -1 0 677)" d="M79.3701 117.3713L132.0201 117.3713" stroke="#181818" stroke-width="1" fill="none" /><path transform="matrix(1 0 0 -1 0 677)" d="M132.0201 117.3713L255.8271 117.3713" stroke="#181818" stroke-width="1" fill="none" /><path transform="matrix(1 0 0 -1 0 677)" d="M255.8268 117.3713L453.5438 117.3713" stroke="#181818" stroke-width="1" fill="none" /><path transform="matrix(1 0 0 -1 0 677)" d="M79.3701 103.702L132.0201 103.702" stroke="#181818" stroke-width="0.5" fill="none" /><path transform="matrix(1 0 0 -1 0 677)" d="M132.0201 103.702L255.8271 103.702" stroke="#181818" stroke-width="0.5" fill="none" /><path transform="matrix(1 0 0 -1 0 677)" d="M255.8268 103.702L453.5438 103.702" stroke="#181818" stroke-width="0.5" fill="none" /><path transform="matrix(1 0 0 -1 0 677)" d="M79.3701 78.0327L132.0201 78.0327" stroke="#181818" stroke-width="0.5" fill="none" /><path transform="matrix(1 0 0 -1 0 677)" d="M132.0201 78.0327L255.8271 78.0327" stroke="#181818" stroke-width="0.5" fill="none" /><path transform="matrix(1 0 0 -1 0 677)" d="M255.8268 78.0327L453.5438 78.0327" stroke="#181818" stroke-width="0.5" fill="none" /></g></g></g></svg>