<svg xmlns="http://www.w3.org/2000/svg" xmlns:xlink="http://www.w3.org/1999/xlink" id="body_174" preserveAspectRatio="xMinYMin meet" viewBox="0 0 695 903"><defs><clipPath id="1"><path d="M0 677L0 -0.4799805L0 -0.4799805L521.575 -0.4799805L521.575 -0.4799805L521.575 677L521.575 677L0 677z" /></clipPath><clipPath id="2"><path d="M0 -0.4799805L521.575 -0.4799805L521.575 -0.4799805L521.575 677L521.575 677L0 677z" /></clipPath><clipPath id="3"><path d="M0 -0.4799805L521.575 -0.4799805L521.575 -0.4799805L521.575 677L521.575 677L0 677z" /></clipPath><clipPath id="4"><path d="M495.567 133.638L553.252 133.638L553.252 133.638L553.252 164.929L553.252 164.929L495.567 164.929z" /></clipPath></defs><g transform="matrix(1.333333 0 0 1.333333 0 0)"><g><g clip-path="url(#1)"><g clip-path="url(#2)"><path transform="matrix(1 0 0 -1 0 677)" d="M68.03149 53.7166L442.2045 53.7166" stroke="#020202" stroke-width="0.283" fill="none" /></g><g clip-path="url(#3)"><g><g clip-path="url(#4)"><path transform="matrix(1 0 0 -1 0 677)" d="M505.067 513.571L543.752 513.571L543.752 513.571L543.752 541.862L543.752 541.862L505.067 541.862z" stroke="#FFFFFF" stroke-width="1" fill="#000000" fill-rule="winding" fill-opacity="0" /></g></g></g><path transform="matrix(1 0 0 -1 0 677)" d="M136.63 604.697L442.205 604.697L442.205 604.697L442.205 591.028L442.205 591.028L136.63 591.028zM68.031 604.697L136.629 604.697L136.629 604.697L136.629 591.028L136.629 591.028L68.031 591.028z" stroke="none" fill="#E1E1E1" fill-rule="winding" /><path transform="matrix(1 0 0 -1 0 677)" d="M68.03149 604.6969L136.6295 604.6969" stroke="#181818" stroke-width="1" fill="none" /><path transform="matrix(1 0 0 -1 0 677)" d="M136.6299 604.6969L442.2049 604.6969" stroke="#181818" stroke-width="1" fill="none" /><path transform="matrix(1 0 0 -1 0 677)" d="M68.03149 510.6812L136.6295 510.6812" stroke="#181818" stroke-width="1" fill="none" /><path transform="matrix(1 0 0 -1 0 677)" d="M136.6299 510.6812L442.2049 510.6812" stroke="#181818" stroke-width="1" fill="none" /><path transform="matrix(1 0 0 -1 0 677)" d="M68.03149 591.0276L136.6295 591.0276" stroke="#181818" stroke-width="0.5" fill="none" /><path transform="matrix(1 0 0 -1 0 677)" d="M136.6299 591.0276L442.2049 591.0276" stroke="#181818" stroke-width="0.5" fill="none" /><path transform="matrix(1 0 0 -1 0 677)" d="M142.866 478.071L218.834 478.071L218.834 478.071L218.834 464.402L218.834 464.402L142.866 464.402zM68.031 478.071L142.866 478.071L142.866 478.071L142.866 464.402L142.866 464.402L68.031 464.402z" stroke="none" fill="#E1E1E1" fill-rule="winding" /><path transform="matrix(1 0 0 -1 0 677)" d="M68.03149 478.0709L142.8665 478.0709" stroke="#181818" stroke-width="1" fill="none" /><path transform="matrix(1 0 0 -1 0 677)" d="M142.8661 478.0709L218.8341 478.0709" stroke="#181818" stroke-width="1" fill="none" /><path transform="matrix(1 0 0 -1 0 677)" d="M68.03149 437.063L142.8665 437.063" stroke="#181818" stroke-width="1" fill="none" /><path transform="matrix(1 0 0 -1 0 677)" d="M142.8661 437.063L218.8341 437.063" stroke="#181818" stroke-width="1" fill="none" /><path transform="matrix(1 0 0 -1 0 677)" d="M68.03149 464.4016L142.8665 464.4016" stroke="#181818" stroke-width="0.5" fill="none" /><path transform="matrix(1 0 0 -1 0 677)" d="M142.8661 464.4016L218.8341 464.4016" stroke="#181818" stroke-width="0.5" fill="none" /><path transform="matrix(1 0 0 -1 0 677)" d="M68.182 329.156L442.055 329.156L442.055 329.156L442.055 402.133L442.055 402.133L68.182 402.133z" stroke="#181818" stroke-width="0.3" fill="none" /></g></g></g></svg>