<svg xmlns="http://www.w3.org/2000/svg" xmlns:xlink="http://www.w3.org/1999/xlink" id="body_117" preserveAspectRatio="xMinYMin meet" viewBox="0 0 695 903"><defs><clipPath id="1"><path d="M0 677L0 -0.4799805L0 -0.4799805L521.575 -0.4799805L521.575 -0.4799805L521.575 677L521.575 677L0 677z" /></clipPath><clipPath id="2"><path d="M0 -0.4799805L521.575 -0.4799805L521.575 -0.4799805L521.575 677L521.575 677L0 677z" /></clipPath><clipPath id="3"><path d="M0 -0.4799805L521.575 -0.4799805L521.575 -0.4799805L521.575 677L521.575 677L0 677z" /></clipPath><clipPath id="4"><path d="M-9 133.638L48.685 133.638L48.685 133.638L48.685 164.929L48.685 164.929L-9 164.929z" /></clipPath><clipPath id="5"><path d="M93.657 566.5L439.257 566.5L439.257 566.5L439.257 421.611L439.257 421.611L93.657 421.611z" /></clipPath></defs><g transform="matrix(1.333333 0 0 1.333333 0 0)"><g><g clip-path="url(#1)"><g clip-path="url(#2)"><path transform="matrix(1 0 0 -1 0 677)" d="M79.1969 53.7166L453.3699 53.7166" stroke="#020202" stroke-width="0.283" fill="none" /></g><g clip-path="url(#3)"><g><g clip-path="url(#4)"><path transform="matrix(1 0 0 -1 0 677)" d="M0.5 513.571L39.185 513.571L39.185 513.571L39.185 541.862L39.185 541.862L0.5 541.862z" stroke="#FFFFFF" stroke-width="1" fill="#000000" fill-rule="winding" fill-opacity="0" /></g></g></g><g clip-path="url(#5)"><g transform="matrix(0.3136116 0 0 0.3136117 93.65669 421.6108)"><g transform="matrix(1 0 0 1 0 0)"><image x="0" y="0" xlink:href="img_144.png" width="1102" height="462" /></g></g></g><path transform="matrix(1 0 0 -1 0 677)" d="M79.37 267.378L453.543 267.378L453.543 267.378L453.543 98.51299L453.543 98.51299L79.37 98.51299z" stroke="#181818" stroke-width="0.3" fill="none" /><g transform="matrix(0.08000001 0 0 0.07999999 87.87402 188.7368)"><g transform="matrix(1 0 0 1 0 0)"><image x="0" y="0" xlink:href="img_145.png" width="486" height="630" /></g></g></g></g></g></svg>