<svg xmlns="http://www.w3.org/2000/svg" xmlns:xlink="http://www.w3.org/1999/xlink" id="body_17" preserveAspectRatio="xMinYMin meet" viewBox="0 0 695 903"><defs><clipPath id="1"><path d="M0 677L0 -0.4799805L0 -0.4799805L521.575 -0.4799805L521.575 -0.4799805L521.575 677L521.575 677L0 677z" /></clipPath><clipPath id="2"><path d="M0 -0.4799805L521.575 -0.4799805L521.575 -0.4799805L521.575 677L521.575 677L0 677z" /></clipPath><clipPath id="3"><path d="M0 -0.4799805L521.575 -0.4799805L521.575 -0.4799805L521.575 677L521.575 677L0 677z" /></clipPath><clipPath id="4"><path d="M495.567 133.638L553.252 133.638L553.252 133.638L553.252 164.929L553.252 164.929L495.567 164.929z" /></clipPath></defs><g transform="matrix(1.333333 0 0 1.333333 0 0)"><g><g clip-path="url(#1)"><g clip-path="url(#2)"><path transform="matrix(1 0 0 -1 0 677)" d="M68.03149 53.7166L442.2045 53.7166" stroke="#020202" stroke-width="0.283" fill="none" /></g><g clip-path="url(#3)"><g><g clip-path="url(#4)"><path transform="matrix(1 0 0 -1 0 677)" d="M505.067 513.571L543.752 513.571L543.752 513.571L543.752 541.862L543.752 541.862L505.067 541.862z" stroke="#FFFFFF" stroke-width="1" fill="#000000" fill-rule="winding" fill-opacity="0" /></g></g></g><g transform="matrix(0.07668922 0 0 0.07668923 73.68196 328.184)"><g transform="matrix(1 0 0 1 0 0)"><image x="0" y="0" xlink:href="img_21.png" width="536" height="717" /></g></g><g transform="matrix(0.08000001 0 0 0.07999999 73.70079 395.3391)"><g transform="matrix(1 0 0 1 0 0)"><image x="0" y="0" xlink:href="img_22.png" width="486" height="630" /></g></g><g transform="matrix(0.07923931 0 0 0.0792393 67.6378 463.12)"><g transform="matrix(1 0 0 1 0 0)"><image x="0" y="0" xlink:href="img_23.png" width="631" height="596" /></g></g></g></g></g></svg>