<svg xmlns="http://www.w3.org/2000/svg" xmlns:xlink="http://www.w3.org/1999/xlink" id="body_204" preserveAspectRatio="xMinYMin meet" viewBox="0 0 695 903"><defs><clipPath id="1"><path d="M0 677L0 -0.4799805L0 -0.4799805L521.575 -0.4799805L521.575 -0.4799805L521.575 677L521.575 677L0 677z" /></clipPath><clipPath id="2"><path d="M0 -0.4799805L521.575 -0.4799805L521.575 -0.4799805L521.575 677L521.575 677L0 677z" /></clipPath><clipPath id="3"><path d="M0 -0.4799805L521.575 -0.4799805L521.575 -0.4799805L521.575 677L521.575 677L0 677z" /></clipPath><clipPath id="4"><path d="M495.567 133.638L553.252 133.638L553.252 133.638L553.252 164.929L553.252 164.929L495.567 164.929z" /></clipPath></defs><g transform="matrix(1.333333 0 0 1.333333 0 0)"><g><g clip-path="url(#1)"><g clip-path="url(#2)"><path transform="matrix(1 0 0 -1 0 677)" d="M68.03149 53.7166L442.2045 53.7166" stroke="#020202" stroke-width="0.283" fill="none" /></g><g clip-path="url(#3)"><g><g clip-path="url(#4)"><path transform="matrix(1 0 0 -1 0 677)" d="M505.067 513.571L543.752 513.571L543.752 513.571L543.752 541.862L543.752 541.862L505.067 541.862z" stroke="#FFFFFF" stroke-width="1" fill="#000000" fill-rule="winding" fill-opacity="0" /></g></g></g><path transform="matrix(1 0 0 -1 0 677)" d="M244.488 604.697L442.205 604.697L442.205 604.697L442.205 591.028L442.205 591.028L244.488 591.028zM120.682 604.697L244.489 604.697L244.489 604.697L244.489 591.028L244.489 591.028L120.682 591.028zM68.031 604.697L120.681 604.697L120.681 604.697L120.681 591.028L120.681 591.028L68.031 591.028z" stroke="none" fill="#E1E1E1" fill-rule="winding" /><path transform="matrix(1 0 0 -1 0 677)" d="M68.03149 604.6969L120.6815 604.6969" stroke="#181818" stroke-width="1" fill="none" /><path transform="matrix(1 0 0 -1 0 677)" d="M120.6815 604.6969L244.4885 604.6969" stroke="#181818" stroke-width="1" fill="none" /><path transform="matrix(1 0 0 -1 0 677)" d="M244.4882 604.6969L442.2052 604.6969" stroke="#181818" stroke-width="1" fill="none" /><path transform="matrix(1 0 0 -1 0 677)" d="M68.03149 551.689L120.6815 551.689" stroke="#181818" stroke-width="1" fill="none" /><path transform="matrix(1 0 0 -1 0 677)" d="M120.6815 551.689L244.4885 551.689" stroke="#181818" stroke-width="1" fill="none" /><path transform="matrix(1 0 0 -1 0 677)" d="M244.4882 551.689L442.2052 551.689" stroke="#181818" stroke-width="1" fill="none" /><path transform="matrix(1 0 0 -1 0 677)" d="M68.03149 591.0276L120.6815 591.0276" stroke="#181818" stroke-width="0.5" fill="none" /><path transform="matrix(1 0 0 -1 0 677)" d="M120.6815 591.0276L244.4885 591.0276" stroke="#181818" stroke-width="0.5" fill="none" /><path transform="matrix(1 0 0 -1 0 677)" d="M244.4882 591.0276L442.2052 591.0276" stroke="#181818" stroke-width="0.5" fill="none" /><path transform="matrix(1 0 0 -1 0 677)" d="M68.182 66.398L442.055 66.398L442.055 66.398L442.055 259.554L442.055 259.554L68.182 259.554z" stroke="#181818" stroke-width="0.3" fill="none" /></g></g></g></svg>