<svg xmlns="http://www.w3.org/2000/svg" xmlns:xlink="http://www.w3.org/1999/xlink" id="body_2" preserveAspectRatio="xMinYMin meet" viewBox="0 0 695 903"><defs><clipPath id="1"><path d="M0 677L0 -0.3953247L0 -0.3953247L521.5181 -0.3953247L521.5181 -0.3953247L521.5181 677L521.5181 677L0 677z" /></clipPath><clipPath id="2"><path d="M0 677L521.518 677L521.518 677L521.518 -0.3950195L521.518 -0.3950195L0 -0.3950195z" /></clipPath><clipPath id="3"><path d="M191 588.605L487 588.605L487 588.605L487 75.60498L487 75.60498L191 75.60498z" /></clipPath><clipPath id="4"><path d="M212.406 575.591L470.406 575.591L470.406 575.591L470.406 197.991L470.406 197.991L212.406 197.991z" /></clipPath><clipPath id="5"><path d="M205.35 211.255L472.65 211.255L472.65 211.255L472.65 102.955L472.65 102.955L205.35 102.955z" /></clipPath></defs><g transform="matrix(1.333333 0 0 1.333333 0 0)"><g><g clip-path="url(#1)"><g clip-path="url(#2)"><path transform="matrix(1 0 0 -1 0 677)" d="M0 677.3953L522 677.3953L522 677.3953L522 -0.6046753L522 -0.6046753L0 -0.6046753z" stroke="none" fill="#FFFFFF" fill-rule="winding" /><g transform="matrix(1 0 0 0.9986169 -25 -28.39526)"><g transform="matrix(1 0 0 1 0 0)"><image x="0" y="0" xlink:href="img_03.png" width="578" height="723" /></g></g></g><g clip-path="url(#3)"><path transform="matrix(1 0 0 -1 0 677)" d="M192 104.3953L192 585.3953C 192 593.6793 198.716 600.3953 207 600.3953L207 600.3953L471 600.3953C 479.284 600.3953 486 593.6793 486 585.3953L486 585.3953L486 104.3953C 486 96.1113 479.284 89.3953 471 89.3953L471 89.3953L207 89.3953C 198.716 89.3953 192 96.1113 192 104.3953z" stroke="none" fill="#000000" fill-rule="winding" fill-opacity="0.227451" /></g><g clip-path="url(#4)"></g><g clip-path="url(#5)"></g></g></g></g></svg>